<?xml version="1.0" encoding="UTF-8"?>
<svg version="1.1" xmlns="http://www.w3.org/2000/svg" width="1000" height="1000">
<path d="M0 0 C2.5776365 -0.00346597 5.15527151 -0.00823678 7.73290348 -0.01418173 C13.28808025 -0.02490333 18.84316921 -0.02475919 24.39834976 -0.01704025 C32.65972116 -0.00559281 40.92101983 -0.01154529 49.1823909 -0.02066517 C63.94559861 -0.0363884 78.70876716 -0.03512291 93.47197852 -0.02642844 C106.39214065 -0.0188575 119.31228849 -0.01692293 132.23245239 -0.02049637 C133.09218617 -0.02072552 133.95191996 -0.02095468 134.83770628 -0.02119078 C138.32835752 -0.02212492 141.81900876 -0.02308013 145.30965999 -0.02407007 C178.00043114 -0.03323035 210.69117747 -0.02495328 243.38194479 -0.00877938 C272.37402792 0.00545557 301.36607151 0.00418161 330.3581543 -0.01016235 C362.99224039 -0.02625456 395.62630458 -0.03258049 428.2603941 -0.02332556 C431.74438667 -0.02236353 435.22837925 -0.021425 438.71237183 -0.02049637 C439.57010964 -0.02025914 440.42784746 -0.0200219 441.31157733 -0.01977748 C454.21806972 -0.01637674 467.12454619 -0.02033403 480.03103638 -0.02793503 C494.71826021 -0.03654206 509.40543905 -0.03430629 524.09265733 -0.0180928 C532.29483572 -0.00933494 540.49691647 -0.00863438 548.69909217 -0.02003132 C554.84820854 -0.02762734 560.99721195 -0.01928965 567.1463145 -0.0051076 C569.61503858 -0.00178807 572.08377592 -0.00338906 574.55249131 -0.01073496 C594.70927679 -0.06605849 615.21185962 0.81095243 634.78491211 6.06845093 C635.75944336 6.32191284 636.73397461 6.57537476 637.73803711 6.83651733 C672.8067077 16.33903259 703.86746668 35.90387979 729.47241211 61.38095093 C730.2178125 62.12030884 730.2178125 62.12030884 730.97827148 62.87460327 C748.65892525 80.65890225 762.39291476 103.07633343 771.47241211 126.38095093 C771.7336084 127.04771851 771.99480469 127.71448608 772.26391602 128.40145874 C775.44504106 136.64998433 778.0361283 145.00318943 780.22241211 153.56845093 C780.42108887 154.33898804 780.61976563 155.10952515 780.82446289 155.90341187 C784.70039736 171.77249059 784.75918943 187.25569837 784.73310852 203.49928284 C784.73613143 206.16657532 784.73994124 208.83385629 784.74470109 211.50114518 C784.75343091 217.28611106 784.75478671 223.07104153 784.75119781 228.85601234 C784.74587489 237.4589462 784.75200209 246.06184596 784.76028075 254.66477611 C784.77549991 270.92638096 784.77722794 287.18797021 784.77475772 303.44958069 C784.77292309 316.01010865 784.77468823 328.57063151 784.77898216 341.13115883 C784.77958457 342.93749835 784.78018577 344.74383788 784.78078577 346.5501774 C784.78169305 349.27237016 784.78260172 351.99456291 784.78351812 354.71675566 C784.79194464 380.01828172 784.79628545 405.31980586 784.7921114 430.62133312 C784.79195502 431.57464034 784.79179864 432.52794755 784.79163753 433.51014286 C784.79083178 438.34156739 784.78998601 443.17299191 784.78912423 448.00441643 C784.78895314 448.96390289 784.78878205 449.92338934 784.78860578 450.91195115 C784.78825912 452.85226497 784.78791059 454.79257879 784.78756019 456.73289261 C784.78220408 486.91808051 784.79013153 517.10323918 784.80859375 547.28842163 C784.82932632 581.2250623 784.84003403 615.16168487 784.83601826 649.09833223 C784.83562294 652.71944288 784.83526139 656.34055354 784.83492088 659.9616642 C784.83483015 660.85323052 784.83473942 661.74479684 784.83464594 662.66338032 C784.83348169 676.10167165 784.84011512 689.53994467 784.8507328 702.97823143 C784.86280177 718.26865565 784.86432427 733.5590396 784.85194264 748.84946444 C784.84533007 757.39722606 784.84690795 765.94489131 784.86053115 774.49264515 C784.86881076 780.21410058 784.86603281 785.93548425 784.85455588 791.65693392 C784.84833398 794.90899884 784.84829386 798.16084122 784.85841922 801.41290166 C784.91048081 819.39002175 783.97146014 836.62665001 778.72241211 853.94345093 C778.46637207 854.8092981 778.21033203 855.67514526 777.9465332 856.56723022 C767.60886429 890.68029138 749.58628529 920.14102642 724.47241211 945.38095093 C723.97950684 945.87788452 723.48660156 946.37481812 722.97875977 946.8868103 C705.19446078 964.56746407 682.7770296 978.30145357 659.47241211 987.38095093 C658.80564453 987.64214722 658.13887695 987.90334351 657.4519043 988.17245483 C649.2033787 991.35357988 640.8501736 993.94466711 632.28491211 996.13095093 C631.514375 996.32962769 630.74383789 996.52830444 629.94995117 996.73300171 C614.09314434 1000.60593883 598.62301003 1000.66774923 582.39204407 1000.64164734 C579.72887638 1000.64467026 577.06572021 1000.64848007 574.40255612 1000.65323991 C568.62660261 1000.66196962 562.85068457 1000.66332556 557.0747261 1000.65973663 C548.48519349 1000.65441365 539.89569501 1000.66054096 531.3061661 1000.66881957 C515.06988271 1000.68403863 498.83361494 1000.68576676 482.5973259 1000.68329654 C470.05634409 1000.6814619 457.51536739 1000.68322707 444.97438622 1000.68752098 C443.17085009 1000.68812339 441.36731396 1000.68872459 439.56377783 1000.68932458 C436.84580898 1000.69023187 434.12784012 1000.69114053 431.40987127 1000.69205694 C406.14764106 1000.70048344 380.88541276 1000.70482428 355.62318134 1000.70065022 C354.67135699 1000.70049384 353.71953264 1000.70033746 352.73886512 1000.70017635 C347.91495714 1000.6993706 343.09104917 1000.69852483 338.2671412 1000.69766305 C336.83015092 1000.69740641 336.83015092 1000.69740641 335.36413054 1000.6971446 C333.42683581 1000.69679794 331.48954108 1000.69644941 329.55224635 1000.69609901 C299.41405109 1000.6907429 269.27588511 1000.69867034 239.13769531 1000.71713257 C205.25379235 1000.7378652 171.36990751 1000.74857283 137.48599786 1000.74455708 C133.87050418 1000.74416176 130.25501051 1000.74380021 126.63951683 1000.7434597 C125.74933366 1000.74336897 124.85915049 1000.74327824 123.94199208 1000.74318476 C110.5246323 1000.74202052 97.10729088 1000.74865389 83.68993568 1000.75927162 C68.42330002 1000.77134067 53.15670468 1000.772863 37.89006839 1000.76048145 C29.35563742 1000.75386896 20.82130298 1000.7554466 12.2868798 1000.76906997 C6.57431021 1000.77734973 0.86181249 1000.77457144 -4.85075133 1000.7630947 C-8.09774116 1000.75687294 -11.34450811 1000.7568324 -14.59149345 1000.76695804 C-32.55735967 1000.81906966 -49.78420259 999.87669023 -67.09008789 994.63095093 C-67.95593506 994.37491089 -68.82178223 994.11887085 -69.71386719 993.85507202 C-103.82692834 983.51740311 -133.28766338 965.49482411 -158.52758789 940.38095093 C-159.02452148 939.88804565 -159.52145508 939.39514038 -160.03344727 938.88729858 C-177.71410104 921.1029996 -191.44809054 898.68556842 -200.52758789 875.38095093 C-200.91938232 874.38079956 -200.91938232 874.38079956 -201.3190918 873.36044312 C-212.16662468 845.23323925 -214.99759145 816.79290841 -214.90853882 786.81539917 C-214.91200477 784.23363787 -214.91677556 781.65187807 -214.92272055 779.07012129 C-214.9334424 773.50593218 -214.93329784 767.94183075 -214.92557907 762.37763786 C-214.91413187 754.10286524 -214.92008399 745.82816525 -214.92920399 737.55339296 C-214.9449274 722.76625704 -214.94366166 707.97916023 -214.93496726 693.19202067 C-214.92739638 680.25091916 -214.92546171 667.30983191 -214.92903519 654.36872864 C-214.92926434 653.50760851 -214.9294935 652.64648838 -214.9297296 651.7592737 C-214.93066374 648.26299551 -214.93161895 644.76671732 -214.93260889 641.27043915 C-214.94176921 608.52683067 -214.93349203 575.78324697 -214.9173182 543.03964233 C-214.90308324 514.00056655 -214.9043572 484.96153026 -214.91870117 455.92245483 C-214.93479331 423.23563104 -214.94111935 390.54882911 -214.93186438 357.8620019 C-214.93090235 354.37239234 -214.92996382 350.88278278 -214.92903519 347.39317322 C-214.92879795 346.53405225 -214.92856072 345.67493129 -214.9283163 344.78977635 C-214.92491552 331.8623524 -214.9288729 318.93494433 -214.93647385 306.00752258 C-214.94508079 291.2965102 -214.94284529 276.58554275 -214.92663161 261.87453592 C-214.91787362 253.65902687 -214.9171734 245.44361531 -214.92857014 237.22810895 C-214.93616595 231.06906921 -214.92782876 224.91014227 -214.91364641 218.75111634 C-214.9103268 216.27835459 -214.9119281 213.80557962 -214.91927378 211.33282655 C-214.97453551 191.16508005 -214.10049869 170.65234558 -208.84008789 151.06845093 C-208.58662598 150.09391968 -208.33316406 149.11938843 -208.07202148 148.11532593 C-198.56950623 113.04665534 -179.00465903 81.98589635 -153.52758789 56.38095093 C-153.03468262 55.88401733 -152.54177734 55.38708374 -152.03393555 54.87509155 C-134.24963656 37.19443778 -111.83220539 23.46044828 -88.52758789 14.38095093 C-87.86082031 14.11975464 -87.19405273 13.85855835 -86.50708008 13.58944702 C-58.39314052 2.74702965 -29.9637367 -0.08915998 0 0 Z " fill="#2E5482" transform="translate(215.527587890625,-0.380950927734375)"/>
<path d="M0 0 C13.66335658 -0.44896024 23.4734967 3.2807095 33.81640625 12.1953125 C60.29160481 37.03558844 66.69701753 82.12181589 73.06640625 115.9453125 C73.19128418 116.60655121 73.31616211 117.26778992 73.44482422 117.94906616 C76.02865768 131.70827958 77.89516485 145.54320009 79.65625 159.4296875 C79.82551596 160.7598738 79.99483389 162.09005348 80.16419983 163.42022705 C80.51701659 166.19330785 80.86902124 168.96649021 81.22045898 171.73974609 C81.57312519 174.52212357 81.92695487 177.30434863 82.28198242 180.08642578 C84.09155945 194.26789793 85.88045593 208.45213573 87.5703125 222.6484375 C87.69776352 223.68877136 87.82521454 224.72910522 87.95652771 225.80096436 C89.77793049 241.37173204 89.77793049 241.37173204 87.00390625 246.6328125 C84.71918371 249.30920176 83.09022185 250.9870294 79.546875 251.56640625 C71.83369202 251.76782577 71.83369202 251.76782577 68.31640625 248.9453125 C64.11981992 244.32906754 63.36381996 240.32030713 62.6328125 234.22265625 C62.53295547 233.43694748 62.43309845 232.65123871 62.33021545 231.84172058 C62.00587716 229.27293295 61.69230363 226.70295591 61.37890625 224.1328125 C61.15396793 222.33506296 60.92854071 220.53737454 60.70263672 218.73974609 C59.52114451 209.27563473 58.43352807 199.80621196 57.44140625 190.3203125 C51.57192815 102.72291654 51.57192815 102.72291654 12.81640625 28.1953125 C7.41987603 24.77182199 0.61122865 25.69644549 -5.43359375 26.8828125 C-30.64877748 33.29720134 -51.89179578 48.49226946 -72.18359375 64.1953125 C-72.78800293 64.659375 -73.39241211 65.1234375 -74.01513672 65.6015625 C-87.70961733 76.1237064 -100.9382736 87.32169981 -113.40625 99.27734375 C-126.1173667 111.40061022 -126.1173667 111.40061022 -134.37109375 112.6953125 C-138.94578655 112.09535279 -143.04536331 110.7514066 -147.4296875 109.33984375 C-174.84017473 100.98264005 -203.73154153 99.7371945 -232.18359375 100.1953125 C-233.47475098 100.21416504 -233.47475098 100.21416504 -234.79199219 100.23339844 C-255.00497984 100.61893226 -275.46383356 103.19046057 -295.11181641 107.97583008 C-300.93535559 109.34977598 -307.22441943 110.68163526 -312.7578125 107.90234375 C-313.80388672 106.96455078 -313.80388672 106.96455078 -314.87109375 106.0078125 C-315.70125 105.28078125 -316.53140625 104.55375 -317.38671875 103.8046875 C-318.3096875 102.94359375 -319.23265625 102.0825 -320.18359375 101.1953125 C-321.30329214 100.1587534 -322.42308907 99.12230073 -323.54296875 98.0859375 C-325.34852867 96.40900849 -327.15138138 94.72941405 -328.94897461 93.04394531 C-334.16376933 88.16488512 -339.57166569 83.61381788 -345.18359375 79.1953125 C-345.82780273 78.68387695 -346.47201172 78.17244141 -347.13574219 77.64550781 C-363.46420327 64.69483364 -380.15961366 52.68552528 -398.18359375 42.1953125 C-398.83569824 41.81358887 -399.48780273 41.43186523 -400.15966797 41.03857422 C-413.17262993 33.50440119 -429.69476701 25.10555016 -445.18359375 27.1953125 C-458.31512801 32.58862122 -463.79212641 46.11212621 -469.03027344 58.36914062 C-487.30240415 103.14437033 -491.06922568 154.20075313 -496.88232422 201.74514771 C-497.34582451 205.5147028 -497.82183612 209.28266631 -498.296875 213.05078125 C-498.78823902 216.96228767 -499.26903839 220.87176395 -499.67578125 224.79296875 C-501.03877116 237.12941822 -501.03877116 237.12941822 -505.18359375 242.1953125 C-509.19492172 244.89859874 -512.37597275 245.8964239 -517.18359375 245.1953125 C-521.50421866 242.90792284 -524.41836684 240.80451611 -526.18359375 236.1953125 C-527.21372423 228.64102232 -525.64784539 221.04989606 -524.45581055 213.59985352 C-523.3761087 206.77281567 -522.58392963 199.94438481 -521.87109375 193.0703125 C-517.4339507 151.43875719 -511.39989921 109.58112232 -500.18359375 69.1953125 C-499.9314209 68.28523438 -499.67924805 67.37515625 -499.41943359 66.4375 C-493.23278994 44.74282851 -482.80335008 18.77799257 -462.640625 6.66796875 C-449.39609012 -0.2448369 -435.27333056 -0.4419463 -421.01367188 3.84814453 C-409.56697984 7.59367604 -398.77079386 12.48674803 -388.18359375 18.1953125 C-387.04921875 18.79859375 -385.91484375 19.401875 -384.74609375 20.0234375 C-362.97957126 32.01517906 -342.81756096 47.53484208 -324.0390625 63.73828125 C-320.39076873 66.87751077 -316.65813783 69.90585559 -312.9140625 72.9296875 C-310.18359375 75.1953125 -310.18359375 75.1953125 -308.62988281 77.08569336 C-306.57171408 79.37606431 -304.94661554 80.80711497 -302.18359375 82.1953125 C-296.82055296 82.39088996 -291.77807722 81.33984186 -286.55859375 80.2578125 C-285.17258059 79.99815803 -283.78585638 79.74226962 -282.3984375 79.49023438 C-279.65584886 78.9885882 -276.91735777 78.46975163 -274.18017578 77.93945312 C-244.36270014 72.2652759 -211.24927944 71.90860341 -181.18359375 76.1953125 C-180.425625 76.30246582 -179.66765625 76.40961914 -178.88671875 76.52001953 C-168.67617941 78.01122713 -158.57418927 80.06275777 -148.48828125 82.23046875 C-147.77188477 82.38153076 -147.05548828 82.53259277 -146.31738281 82.68823242 C-144.18359375 83.1953125 -144.18359375 83.1953125 -142.01074219 83.8996582 C-139.67130523 84.69061761 -139.67130523 84.69061761 -136.18359375 85.1953125 C-133.57990581 83.76154986 -133.57990581 83.76154986 -131.68359375 81.2578125 C-130.92433594 80.40960938 -130.16507813 79.56140625 -129.3828125 78.6875 C-128.65707031 77.86507812 -127.93132812 77.04265625 -127.18359375 76.1953125 C-125.97906304 75.06432156 -124.75059952 73.95810316 -123.49609375 72.8828125 C-122.84382813 72.32335937 -122.1915625 71.76390625 -121.51953125 71.1875 C-120.74867188 70.53007812 -119.9778125 69.87265625 -119.18359375 69.1953125 C-118.15440373 68.30271041 -117.12580613 67.40942499 -116.09765625 66.515625 C-107.63709472 59.18135828 -99.01079062 52.08389951 -90.18359375 45.1953125 C-89.55759277 44.70562988 -88.9315918 44.21594727 -88.28662109 43.71142578 C-63.17950432 24.18080635 -32.74238178 2.00873508 0 0 Z " fill="#FCFDFD" transform="translate(718.18359375,226.8046875)"/>
<path d="M0 0 C7.11135611 4.31025925 11.80745124 9.87607568 16 17 C16.54333984 17.91845703 16.54333984 17.91845703 17.09765625 18.85546875 C20.9461661 26.96418949 20.1362896 38.71613119 17.375 47 C12.81352183 57.65408188 4.86065763 65.78071069 -5.82421875 70.2734375 C-13.64182753 72.88398549 -22.51230502 73.46234436 -30.125 70.0625 C-31.42798038 69.39669135 -32.72239092 68.713284 -34 68 C-34.66 67.67 -35.32 67.34 -36 67 C-35.99214478 68.08269165 -35.99214478 68.08269165 -35.98413086 69.18725586 C-35.96342642 72.43732849 -35.95036082 75.68738728 -35.9375 78.9375 C-35.92912109 80.07380859 -35.92074219 81.21011719 -35.91210938 82.38085938 C-35.90727539 84.00024414 -35.90727539 84.00024414 -35.90234375 85.65234375 C-35.89448853 87.15269165 -35.89448853 87.15269165 -35.88647461 88.68334961 C-36 91 -36 91 -37 92 C-39.99018161 92.12667764 -42.94694108 92.18520838 -45.9375 92.1875 C-47.19336914 92.20586914 -47.19336914 92.20586914 -48.47460938 92.22460938 C-49.27576172 92.22654297 -50.07691406 92.22847656 -50.90234375 92.23046875 C-51.63960693 92.23457764 -52.37687012 92.23868652 -53.13647461 92.24291992 C-55 92 -55 92 -57 90 C-57.19349959 87.11848862 -57.26218855 84.33343754 -57.24291992 81.45117188 C-57.24481827 80.56651749 -57.24671661 79.6818631 -57.24867249 78.770401 C-57.25238724 75.83642813 -57.24166609 72.90270099 -57.23046875 69.96875 C-57.22927722 67.93615752 -57.22882373 65.90356449 -57.2290802 63.87097168 C-57.22751412 59.60714277 -57.219215 55.34339767 -57.20581055 51.07958984 C-57.18882055 45.60484305 -57.18499614 40.13018846 -57.18575573 34.6554184 C-57.18548423 30.45708327 -57.18000626 26.25876845 -57.17275429 22.06044006 C-57.16956451 20.0413478 -57.16759949 18.02225322 -57.16686058 16.00315857 C-57.16470029 13.1850083 -57.15596277 10.3669572 -57.14526367 7.54882812 C-57.14571686 6.70824356 -57.14617004 5.867659 -57.14663696 5.00160217 C-57.11447662 -0.77104676 -57.11447662 -0.77104676 -56 -3 C-53.56131832 -3.1079859 -51.12740867 -3.18726589 -48.6875 -3.25 C-47.99720703 -3.28351562 -47.30691406 -3.31703125 -46.59570312 -3.3515625 C-44.57421875 -3.390625 -44.57421875 -3.390625 -41 -3 C-39.01953125 -0.984375 -39.01953125 -0.984375 -38 1 C-35.25082883 -0.08300682 -32.70434929 -1.16710692 -30.125 -2.625 C-20.73339959 -6.62360716 -8.76677139 -4.63072407 0 0 Z " fill="#FAFBFC" transform="translate(582,669)"/>
<path d="M0 0 C5.09299988 2.80716529 7.99672579 6.99017736 9.8125 12.4375 C9.91316657 14.19543323 9.95610338 15.95691408 9.96640015 17.71769714 C9.97500061 18.81251404 9.98360107 19.90733093 9.99246216 21.0353241 C9.99672211 22.23691666 10.00098206 23.43850922 10.00537109 24.67651367 C10.01763733 26.57447189 10.01763733 26.57447189 10.03015137 28.51077271 C10.05634498 32.70898312 10.0716782 36.90720337 10.0859375 41.10546875 C10.09129863 42.55246804 10.09667614 43.99946727 10.10206985 45.44646645 C10.12369634 51.46771347 10.14243119 57.48895785 10.15369225 63.51023388 C10.16991949 72.1293304 10.20306951 80.74797529 10.26009309 89.36690158 C10.2988496 95.43242968 10.31833176 101.49783728 10.32361281 107.56348592 C10.32725906 111.18342591 10.33920131 114.80288391 10.37171555 118.42268944 C10.40751229 122.46590192 10.40341095 126.50814941 10.39599609 130.55151367 C10.41240143 131.74298508 10.42880676 132.93445648 10.44570923 134.16203308 C10.39281128 141.2137271 9.50320301 146.02205062 4.8125 151.4375 C-0.37522122 156.25466971 -4.58881271 156.79127902 -11.4609375 156.71875 C-16.5303469 156.19583098 -19.15094034 153.58923296 -22.4375 149.9375 C-25.32625651 145.81070499 -26.43702239 143.12198015 -26.45492554 138.03704834 C-26.46345551 136.94085678 -26.47198547 135.84466522 -26.48077393 134.71525574 C-26.47986755 133.51725845 -26.47896118 132.31926117 -26.47802734 131.08496094 C-26.48474457 129.81950943 -26.49146179 128.55405792 -26.49838257 127.2502594 C-26.51604173 123.78104213 -26.52073801 120.31192354 -26.52201414 116.84266567 C-26.52343677 114.67298548 -26.52770857 112.50333029 -26.53300858 110.33365631 C-26.55151118 102.75774038 -26.55967923 95.1818948 -26.55810547 87.60595703 C-26.55690519 80.55542654 -26.57798437 73.50520274 -26.6095928 66.45474982 C-26.63579367 60.39343322 -26.64647112 54.33221651 -26.64519465 48.27084374 C-26.64468597 44.65436793 -26.65031606 41.03816448 -26.67155075 37.4217453 C-26.69461457 33.38349156 -26.68538909 29.34591886 -26.67333984 25.30761719 C-26.68457886 24.11771683 -26.69581787 22.92781647 -26.70739746 21.70185852 C-26.65030176 14.1643698 -25.90846033 8.20647273 -20.37109375 2.59765625 C-19.79488281 2.23542969 -19.21867188 1.87320312 -18.625 1.5 C-17.75681641 0.92958984 -17.75681641 0.92958984 -16.87109375 0.34765625 C-11.39881139 -2.61067737 -5.56711517 -2.46724422 0 0 Z " fill="#FCFDFD" transform="translate(559.1875,422.5625)"/>
<path d="M0 0 C5.36918051 3.10847292 9.82581884 7.07120653 11.828125 13.078125 C11.92667495 14.82344446 11.96739509 16.57227656 11.97529602 18.32035828 C11.98245132 19.40676102 11.98960663 20.49316376 11.99697876 21.61248779 C11.99966766 22.80472961 12.00235657 23.99697144 12.00512695 25.2253418 C12.01498375 27.10866966 12.01498375 27.10866966 12.02503967 29.03004456 C12.04606352 33.19579799 12.05644204 37.36155172 12.06640625 41.52734375 C12.07045475 42.96319917 12.0745717 44.39905441 12.07875633 45.83490944 C12.09780613 52.58279494 12.11203631 59.33066953 12.1203683 66.07857674 C12.13013346 73.85807491 12.15643471 81.637288 12.19686919 89.41668576 C12.22707488 95.43550753 12.24184147 101.45424781 12.24514931 107.47314388 C12.24749519 111.06506143 12.2563944 114.65667438 12.28161049 118.24851036 C12.30932092 122.26049978 12.30504655 126.27185638 12.2980957 130.28393555 C12.31731079 132.05711655 12.31731079 132.05711655 12.33691406 133.86611938 C12.29081422 141.17232563 11.55921547 147.17452441 6.34534168 152.62946606 C1.31309231 157.04512967 -2.93623291 157.43206592 -9.37890625 157.35546875 C-13.69158513 156.92721672 -15.73556656 155.74301726 -19.171875 153.078125 C-22.8835078 148.29207218 -24.29100431 144.75191664 -24.32577515 138.75996399 C-24.33437561 137.65673294 -24.34297607 136.55350189 -24.35183716 135.4168396 C-24.35609711 134.2058963 -24.36035706 132.994953 -24.36474609 131.74731445 C-24.37292358 130.4722554 -24.38110107 129.19719635 -24.38952637 127.88349915 C-24.41572067 123.65282295 -24.43105323 119.42213699 -24.4453125 115.19140625 C-24.45067359 113.73326296 -24.4560511 112.27511972 -24.46144485 110.81697655 C-24.48307141 104.74940631 -24.5018063 98.68183871 -24.51306725 92.61423969 C-24.52929476 83.92858164 -24.56244537 75.24337174 -24.61946809 66.55788261 C-24.65822329 60.44564576 -24.6777066 54.33352849 -24.68298781 48.22117203 C-24.68663422 44.57328795 -24.69857831 40.92588214 -24.73109055 37.27813148 C-24.76688436 33.20378803 -24.76278627 29.13040225 -24.75537109 25.0559082 C-24.77177643 23.85508606 -24.78818176 22.65426392 -24.80508423 21.41705322 C-24.75224135 14.31925012 -23.8475403 9.55450996 -19.171875 4.078125 C-13.83169222 -1.13180942 -6.9789226 -2.9622765 0 0 Z " fill="#FCFDFD" transform="translate(447.171875,421.921875)"/>
<path d="M0 0 C0.99 0.33 1.98 0.66 3 1 C3.33644531 0.34515625 3.67289063 -0.3096875 4.01953125 -0.984375 C6 -3 6 -3 9.57421875 -3.390625 C10.94585748 -3.3641199 12.31721938 -3.3165309 13.6875 -3.25 C14.7403418 -3.22292969 14.7403418 -3.22292969 15.81445312 -3.1953125 C17.54355436 -3.14826213 19.27195205 -3.07651873 21 -3 C22.44685624 -0.10628753 22.12731373 2.40410049 22.12939453 5.63696289 C22.13202301 6.65911644 22.13202301 6.65911644 22.13470459 7.70191956 C22.13911317 9.95885754 22.13618894 12.21571744 22.1328125 14.47265625 C22.13348575 16.03681961 22.13445595 17.60098287 22.13571167 19.16514587 C22.13718723 22.44449865 22.13503834 25.72382421 22.13037109 29.00317383 C22.12466918 33.21576887 22.12795662 37.42830027 22.13394356 41.64089298 C22.13754898 44.87068668 22.13641076 48.10046518 22.13381577 51.33025932 C22.13314669 52.88406825 22.13397425 54.43787853 22.13629532 55.99168587 C22.13882205 58.15863861 22.13498122 60.32548674 22.12939453 62.49243164 C22.12859894 63.7277211 22.12780334 64.96301056 22.12698364 66.23573303 C22 69 22 69 21 70 C18.35877716 70.18021767 15.76853102 70.27801916 13.125 70.3125 C12.02478516 70.35600586 12.02478516 70.35600586 10.90234375 70.40039062 C8.7578125 70.42578125 8.7578125 70.42578125 5 70 C2.9921875 67.98046875 2.9921875 67.98046875 2 66 C1.28457031 66.433125 0.56914063 66.86625 -0.16796875 67.3125 C-8.94386231 72.21700973 -16.12713489 73.61926141 -25.984375 71.296875 C-36.19420779 67.96880796 -45.10712882 61.16052365 -50.2890625 51.62890625 C-54.74141997 41.87536056 -56.22327182 29.83585516 -52.4375 19.5625 C-47.4666967 9.23985622 -39.6850888 1.91055781 -29.3125 -2.9375 C-19.40322487 -6.15349193 -9.10268161 -4.53313544 0 0 Z " fill="#FBFBFC" transform="translate(700,669)"/>
<path d="M0 0 C0.98613281 -0.07927734 1.97226563 -0.15855469 2.98828125 -0.24023438 C7.19584586 -0.36101226 10.16122761 -0.42183463 13.36401367 2.50537109 C15.24365503 5.14493567 16.80991534 7.8502671 18.375 10.6875 C19.69253643 12.79585728 21.0170315 14.89987847 22.34765625 17 C23.71411966 19.22721744 25.07736479 21.45641237 26.4375 23.6875 C27.11876953 24.79867187 27.80003906 25.90984375 28.50195312 27.0546875 C32.49608014 33.57727724 36.45085755 40.12260737 40.375 46.6875 C40.38530746 46.12595718 40.39561493 45.56441437 40.40623474 44.9858551 C40.51407685 39.16256534 40.62869208 33.33943736 40.74731445 27.51635742 C40.79073507 25.34061047 40.83240471 23.16482786 40.87231445 20.98901367 C40.92984502 17.86886832 40.99358823 14.74890367 41.05859375 11.62890625 C41.07530624 10.64974747 41.09201874 9.67058868 41.10923767 8.66175842 C41.12918289 7.76090012 41.14912811 6.86004181 41.16967773 5.93188477 C41.18522202 5.13468521 41.2007663 4.33748566 41.21678162 3.51612854 C41.375 1.6875 41.375 1.6875 42.375 0.6875 C43.77848735 0.58889869 45.18680477 0.55671063 46.59375 0.5546875 C47.86798828 0.55275391 47.86798828 0.55275391 49.16796875 0.55078125 C50.50794922 0.55658203 50.50794922 0.55658203 51.875 0.5625 C52.76832031 0.55863281 53.66164063 0.55476562 54.58203125 0.55078125 C55.43152344 0.55207031 56.28101563 0.55335938 57.15625 0.5546875 C57.94064453 0.55581543 58.72503906 0.55694336 59.53320312 0.55810547 C61.375 0.6875 61.375 0.6875 62.375 1.6875 C62.47009559 4.30438441 62.50056 6.894789 62.48852539 9.51196289 C62.48867142 10.33140884 62.48881744 11.1508548 62.4889679 11.99513245 C62.48826852 14.71683353 62.48047501 17.43846705 62.47265625 20.16015625 C62.47079216 22.04202741 62.46936821 23.92389906 62.46836853 25.80577087 C62.46454267 30.76898529 62.45471181 35.73217064 62.44366455 40.69537354 C62.4334519 45.75589606 62.42887122 50.81642327 62.42382812 55.87695312 C62.4130896 65.81381488 62.39601236 75.75065503 62.375 85.6875 C58.98763768 85.86255458 55.60144337 85.96859101 52.2109375 86.0625 C51.25437256 86.11277344 50.29780762 86.16304687 49.31225586 86.21484375 C42.36799978 86.35920247 42.36799978 86.35920247 39.57443237 84.4695282 C37.14735687 81.83871478 35.30993453 78.83114298 33.8359375 75.58203125 C30.90145678 69.55257065 27.23187212 64.01841722 23.625 58.375 C22.37625697 56.38137581 21.13134556 54.38534554 19.890625 52.38671875 C19.35727539 51.52908936 18.82392578 50.67145996 18.27441406 49.7878418 C15.61055876 45.43973145 12.99853431 41.06005719 10.375 36.6875 C10.045 52.8575 9.715 69.0275 9.375 85.6875 C2.775 85.6875 -3.825 85.6875 -10.625 85.6875 C-12.37682812 83.93567188 -11.75110303 81.64104967 -11.76052856 79.30690002 C-11.75850433 78.53595505 -11.7564801 77.76501007 -11.75439453 76.97070312 C-11.75614685 76.16261703 -11.75789917 75.35453094 -11.75970459 74.5219574 C-11.76412376 71.8375334 -11.76118489 69.15317472 -11.7578125 66.46875 C-11.75848552 64.61169421 -11.75945553 62.7546385 -11.76071167 60.89758301 C-11.76218873 57.00023563 -11.76003382 53.10291113 -11.75537109 49.20556641 C-11.7496738 44.198155 -11.75295276 39.19079719 -11.75894356 34.18338776 C-11.76254895 30.34710279 -11.76141069 26.51083063 -11.75881577 22.67454529 C-11.75814644 20.82767226 -11.75897513 18.98079808 -11.76129532 17.13392639 C-11.76382149 14.55735168 -11.75998177 11.98086499 -11.75439453 9.40429688 C-11.75641876 8.6333519 -11.75844299 7.86240692 -11.76052856 7.06809998 C-11.72623662 -1.42399346 -7.46284861 0.27163625 0 0 Z " fill="#FDFDFD" transform="translate(203.625,653.3125)"/>
<path d="M0 0 C3.69140095 3.14013313 6.43190181 6.71050386 9.06640625 10.7578125 C9.50210938 11.38816406 9.9378125 12.01851562 10.38671875 12.66796875 C15.07385 20.91141987 14.34688003 32.9165501 12.37109375 41.9296875 C11.46098709 44.39232906 10.4258239 46.51477337 9.06640625 48.7578125 C8.65390625 49.4590625 8.24140625 50.1603125 7.81640625 50.8828125 C1.63291687 60.15804657 -8.18496283 65.51461996 -18.93359375 67.7578125 C-30.81319833 68.99497842 -40.42526199 66.5369427 -50.31640625 59.91015625 C-54.8456337 56.18537367 -57.94360415 51.76311371 -60.93359375 46.7578125 C-61.31515625 46.13519531 -61.69671875 45.51257813 -62.08984375 44.87109375 C-66.04127919 36.730405 -65.12795362 24.18287132 -62.37109375 15.7578125 C-57.94318111 5.57515625 -50.6307812 -1.62528169 -40.59765625 -6.33984375 C-26.57311903 -11.34860704 -11.90761764 -8.47805335 0 0 Z " fill="#FCFCFD" transform="translate(499.93359375,673.2421875)"/>
<path d="M0 0 C9.00660589 4.78662333 15.49323298 11.86909185 18.8984375 21.6640625 C20.03821055 28.0680416 19.73120388 34.78265368 19.359375 41.25390625 C18.359375 42.25390625 18.359375 42.25390625 16.34092712 42.37416077 C15.45490311 42.37194016 14.56887909 42.36971954 13.65600586 42.36743164 C12.65504379 42.36735611 11.65408173 42.36728058 10.62278748 42.36720276 C9.5342598 42.36204147 8.44573212 42.35688019 7.32421875 42.3515625 C6.21583145 42.35014755 5.10744415 42.3487326 3.96546936 42.34727478 C0.40924431 42.34165658 -3.14691883 42.329101 -6.703125 42.31640625 C-9.10742097 42.31139359 -11.51171792 42.30683028 -13.91601562 42.30273438 C-19.82424004 42.29168124 -25.7324281 42.27492542 -31.640625 42.25390625 C-28.84961154 48.02174131 -26.75826583 51.03103676 -20.640625 53.25390625 C-13.64071716 54.15877239 -7.76333429 54.02172735 -1.640625 50.25390625 C-0.320625 50.25390625 0.999375 50.25390625 2.359375 50.25390625 C4.53515625 52.51953125 4.53515625 52.51953125 6.671875 55.50390625 C7.38988281 56.4784375 8.10789062 57.45296875 8.84765625 58.45703125 C10.359375 61.25390625 10.359375 61.25390625 10.37890625 63.41796875 C7.70857133 68.22661784 0.97099106 70.57206869 -3.890625 72.62890625 C-15.42121665 74.55067152 -26.20597163 73.79836999 -36.265625 67.62890625 C-45.84407398 60.69045381 -50.90101476 52.80846609 -53.640625 41.25390625 C-55.14429834 29.35464511 -51.75078947 18.80367569 -44.640625 9.25390625 C-33.17666633 -3.15944858 -15.58005015 -6.7749612 0 0 Z " fill="#FBFCFC" transform="translate(331.640625,667.74609375)"/>
<path d="M0 0 C6.6 0 13.2 0 20 0 C20.33 15.18 20.66 30.36 21 46 C32.2600628 33.72826203 32.2600628 33.72826203 36.6875 25.625 C39.12947863 22.47807282 40.87256781 21.18323207 44.82714844 20.54052734 C52.23603362 20.05341898 59.60707286 20.40034681 67 21 C66.40556367 24.4029599 65.24927085 26.19484997 62.9375 28.734375 C62.30714844 29.42982422 61.67679687 30.12527344 61.02734375 30.84179688 C59.03703564 32.96057381 57.02669176 35.05664858 55 37.140625 C54.34128906 37.81867187 53.68257813 38.49671875 53.00390625 39.1953125 C51.64490107 40.58875641 50.27739511 41.97395052 48.90234375 43.3515625 C48.25394531 44.02445313 47.60554688 44.69734375 46.9375 45.390625 C46.05384766 46.2882959 46.05384766 46.2882959 45.15234375 47.20410156 C43.78084732 48.93214897 43.78084732 48.93214897 44.2043457 51.02856445 C45.49200511 54.21906759 47.3421163 57.04901083 49.1875 59.9375 C49.61659668 60.61973633 50.04569336 61.30197266 50.48779297 62.00488281 C53.17786594 66.24819203 55.95290903 70.42702466 58.77734375 74.58203125 C59.41454346 75.52248291 60.05174316 76.46293457 60.70825195 77.43188477 C61.97284904 79.29116947 63.24596914 81.14468946 64.52807617 82.99194336 C65.10920166 83.8453833 65.69032715 84.69882324 66.2890625 85.578125 C66.81193848 86.33512695 67.33481445 87.09212891 67.87353516 87.87207031 C69 90 69 90 69 94 C49.72392681 95.77791439 49.72392681 95.77791439 44.109375 92.11328125 C42.02726638 89.18695632 40.54428339 86.24371675 39 83 C37.67543618 80.80791854 36.29595287 78.6570792 34.90917969 76.50390625 C32.89088242 73.36526518 30.94852228 70.18232021 29 67 C27.85373678 67.97866338 26.70800212 68.95794587 25.5625 69.9375 C24.92441406 70.48277344 24.28632813 71.02804687 23.62890625 71.58984375 C21.3825417 73.33097465 21.3825417 73.33097465 20.79467773 75.94946289 C20.75802002 76.7821167 20.7213623 77.61477051 20.68359375 78.47265625 C20.64548584 79.28226807 20.60737793 80.09187988 20.56811523 80.92602539 C20.50346069 82.47858032 20.50346069 82.47858032 20.4375 84.0625 C20.293125 87.341875 20.14875 90.62125 20 94 C13.4 94 6.8 94 0 94 C0 62.98 0 31.96 0 0 Z " fill="#FDFDFE" transform="translate(364,645)"/>
<path d="M0 0 C0.87454834 0.00523682 1.74909668 0.01047363 2.65014648 0.01586914 C3.59438477 0.0190918 4.53862305 0.02231445 5.51147461 0.02563477 C6.50469727 0.03401367 7.49791992 0.04239258 8.52124023 0.05102539 C9.51833008 0.05553711 10.51541992 0.06004883 11.54272461 0.06469727 C14.01478872 0.07652532 16.48673541 0.0930069 18.95874023 0.11352539 C22.72256901 8.98228593 25.6960597 18.09632718 28.70874023 27.23852539 C29.2201771 28.7828896 29.73189376 30.32716119 30.24389648 31.87133789 C31.48540338 35.61767451 32.72312625 39.36524126 33.95874023 43.11352539 C35.62285541 40.61735263 36.45818207 38.97544835 37.36328125 36.20874023 C37.62017227 35.43138519 37.87706329 34.65403015 38.14173889 33.8531189 C38.4126384 33.01866241 38.6835379 32.18420593 38.96264648 31.32446289 C39.2459935 30.46543365 39.52934052 29.60640442 39.8212738 28.72134399 C40.72555877 25.97846208 41.6238784 23.23367938 42.52124023 20.48852539 C43.42270319 17.73641341 44.3254807 14.98476117 45.23191833 12.23428345 C45.79588124 10.52253371 46.35687745 8.80980327 46.91468811 7.09603882 C48.84648354 1.22578208 48.84648354 1.22578208 49.95874023 0.11352539 C51.52046768 0.02666936 53.08603368 0.0065032 54.65014648 0.01586914 C55.59438477 0.0190918 56.53862305 0.02231445 57.51147461 0.02563477 C58.50469727 0.03401367 59.49791992 0.04239258 60.52124023 0.05102539 C61.51833008 0.05553711 62.51541992 0.06004883 63.54272461 0.06469727 C66.01478872 0.07652532 68.48673541 0.0930069 70.95874023 0.11352539 C72.42726354 3.56055898 71.55597349 5.90122136 70.24473572 9.28700256 C69.83053123 10.30714699 69.83053123 10.30714699 69.40795898 11.34790039 C69.12227554 12.07822983 68.8365921 12.80855927 68.54225159 13.5610199 C67.58664575 15.99913924 66.61628971 18.43112072 65.64624023 20.86352539 C64.26464903 24.37317732 62.89100391 27.88592303 61.51733398 31.39868164 C61.15362701 32.32582474 60.78992004 33.25296783 60.41519165 34.20820618 C57.55435874 41.52309504 54.78888589 48.87092047 52.05639648 56.23461914 C51.65140427 57.32451141 51.24641205 58.41440369 50.82914734 59.537323 C49.22282937 63.86319009 47.61791735 68.18952715 46.02377319 72.51989746 C44.90886709 75.54675417 43.78604318 78.5705712 42.66186523 81.59399414 C42.33118546 82.49959579 42.00050568 83.40519745 41.6598053 84.33824158 C41.34756516 85.17440506 41.03532501 86.01056854 40.71362305 86.87207031 C40.44575989 87.59827072 40.17789673 88.32447113 39.9019165 89.07267761 C38.83738682 91.37611028 37.61514259 93.19277681 35.95874023 95.11352539 C33.87402344 95.56762695 33.87402344 95.56762695 31.50952148 95.50415039 C30.66196289 95.49125977 29.8144043 95.47836914 28.94116211 95.46508789 C28.06008789 95.43157227 27.17901367 95.39805664 26.27124023 95.36352539 C25.37856445 95.34547852 24.48588867 95.32743164 23.56616211 95.30883789 C21.3626052 95.26170298 19.16121422 95.19593196 16.95874023 95.11352539 C15.86861406 91.87822517 15.99112497 90.29203736 17.42749023 87.21508789 C17.75104492 86.48805664 18.07459961 85.76102539 18.40795898 85.01196289 C19.10550585 83.50277227 19.80600399 81.99494204 20.50952148 80.48852539 C20.83307617 79.75891602 21.15663086 79.02930664 21.48999023 78.27758789 C21.79485352 77.62226074 22.0997168 76.96693359 22.41381836 76.29174805 C23.82296067 70.65896682 20.93985253 65.01839243 18.89624023 59.84008789 C18.58868805 59.04696701 18.28113586 58.25384613 17.96426392 57.43669128 C17.30697478 55.74341581 16.6471233 54.05113311 15.98492432 52.35977173 C14.60824019 48.84322115 13.24412987 45.32184015 11.87930298 41.80067444 C11.19894041 40.04581516 10.5179324 38.29120599 9.83627319 36.53684998 C7.04392227 29.34864563 4.29384776 22.1457059 1.58374023 14.92602539 C1.22151367 13.96712402 0.85928711 13.00822266 0.48608398 12.02026367 C-0.00311523 10.71484619 -0.00311523 10.71484619 -0.50219727 9.38305664 C-0.91671143 8.27861206 -0.91671143 8.27861206 -1.33959961 7.15185547 C-2.03061764 5.14444087 -2.64462531 3.20025389 -3.04125977 1.11352539 C-2.04125977 0.11352539 -2.04125977 0.11352539 0 0 Z " fill="#FCFCFD" transform="translate(734.041259765625,665.886474609375)"/>
<path d="M0 0 C1.27423828 -0.00193359 1.27423828 -0.00193359 2.57421875 -0.00390625 C3.91419922 0.00189453 3.91419922 0.00189453 5.28125 0.0078125 C6.17457031 0.00394531 7.06789063 0.00007812 7.98828125 -0.00390625 C8.83777344 -0.00261719 9.68726563 -0.00132812 10.5625 0 C11.34689453 0.00112793 12.13128906 0.00225586 12.93945312 0.00341797 C14.78125 0.1328125 14.78125 0.1328125 15.78125 1.1328125 C15.88180113 3.98835831 15.91740544 6.81975273 15.91064453 9.67578125 C15.91239685 10.57164948 15.91414917 11.4675177 15.91595459 12.39053345 C15.92037447 15.36714587 15.91743464 18.34369942 15.9140625 21.3203125 C15.9147355 23.37915051 15.91570549 25.43798844 15.91696167 27.49682617 C15.91843883 31.81787877 15.91628351 36.13891073 15.91162109 40.45996094 C15.9059238 46.01217796 15.90920271 51.56434664 15.91519356 57.11656189 C15.91879869 61.36975471 15.91766081 65.62293599 15.91506577 69.87612915 C15.91439636 71.92396043 15.91522538 73.97179273 15.91754532 76.0196228 C15.92007106 78.87639158 15.91623236 81.73308093 15.91064453 84.58984375 C15.91266876 85.44494537 15.91469299 86.300047 15.91677856 87.18106079 C15.89551239 93.01855011 15.89551239 93.01855011 14.78125 94.1328125 C13.37776265 94.23141381 11.96944523 94.26360187 10.5625 94.265625 C9.28826172 94.26755859 9.28826172 94.26755859 7.98828125 94.26953125 C7.09496094 94.26566406 6.20164062 94.26179687 5.28125 94.2578125 C4.38792969 94.26167969 3.49460937 94.26554688 2.57421875 94.26953125 C1.72472656 94.26824219 0.87523437 94.26695312 0 94.265625 C-0.78439453 94.26449707 -1.56878906 94.26336914 -2.37695312 94.26220703 C-4.21875 94.1328125 -4.21875 94.1328125 -5.21875 93.1328125 C-5.31930113 90.27726669 -5.35490544 87.44587227 -5.34814453 84.58984375 C-5.34989685 83.69397552 -5.35164917 82.7981073 -5.35345459 81.87509155 C-5.35787447 78.89847913 -5.35493464 75.92192558 -5.3515625 72.9453125 C-5.3522355 70.88647449 -5.35320549 68.82763656 -5.35446167 66.76879883 C-5.35593883 62.44774623 -5.35378351 58.12671427 -5.34912109 53.80566406 C-5.3434238 48.25344704 -5.34670271 42.70127836 -5.35269356 37.14906311 C-5.35629869 32.89587029 -5.35516081 28.64268901 -5.35256577 24.38949585 C-5.35189636 22.34166457 -5.35272538 20.29383227 -5.35504532 18.2460022 C-5.35757106 15.38923342 -5.35373236 12.53254407 -5.34814453 9.67578125 C-5.35016876 8.82067963 -5.35219299 7.965578 -5.35427856 7.08456421 C-5.32849717 0.00766218 -5.32849717 0.00766218 0 0 Z " fill="#FAFAFB" transform="translate(618.21875,644.8671875)"/>
<path d="M0 0 C4.15492927 2.96780662 8.02490901 6.92926422 9.625 11.875 C10.28883544 18.40271518 9.0414096 23.25123484 5.625 28.875 C1.25074479 33.24925521 -3.02166891 34.95993575 -9.125 35.375 C-15.1084851 35.24978507 -19.01761546 32.83709438 -23.375 28.875 C-27.16696959 24.16376506 -26.87247805 18.77139591 -26.7265625 12.94140625 C-26.11053619 7.56828785 -23.69036993 5.06204116 -19.8125 1.5625 C-14.06479987 -2.41667701 -6.45724918 -2.15241639 0 0 Z " fill="#305683" transform="translate(483.375,686.125)"/>
<path d="M0 0 C5.07458663 1.81934537 8.98479098 5.04744212 11.37890625 9.91015625 C13.01854499 15.4271797 12.67750981 20.96747057 10.875 26.375 C7.77460379 30.71555469 3.95618648 33.91270068 -1 36 C-6.19690346 36.83963576 -10.7563293 36.56685561 -15.375 33.9375 C-19.05252601 31.25007715 -21.74907909 28.4485875 -23 24 C-23.71191546 18.05995537 -23.9013338 12.90281579 -21.3125 7.4375 C-14.582815 0.34404824 -9.66375692 -1.05356748 0 0 Z " fill="#315683" transform="translate(690,685)"/>
<path d="M0 0 C3.7229703 2.6592645 6.55543557 5.73587115 8.625 9.875 C9.27542476 17.49883125 9.65553054 23.83836336 4.625 29.875 C-0.08624266 34.11946056 -4.57825224 35.69305497 -10.91015625 35.37109375 C-16.24477127 34.29740737 -20.86991448 30.98542062 -24.375 26.875 C-26.95617044 21.63444184 -27.14564353 16.60666125 -26.375 10.875 C-24.49556398 5.82401569 -21.33389507 1.89332908 -16.46484375 -0.50390625 C-10.9478203 -2.14354499 -5.40752943 -1.80250981 0 0 Z " fill="#315683" transform="translate(571.375,686.125)"/>
<path d="M0 0 C4.92752123 2.28777771 7.34520876 5.30306165 10 10 C10 10.66 10 11.32 10 12 C-0.23 12 -10.46 12 -21 12 C-19.87197144 6.35985719 -18.77304602 4.90854519 -14.51953125 1.3984375 C-9.83860978 -1.19965535 -5.16050845 -0.90854022 0 0 Z " fill="#375A86" transform="translate(321,683)"/>
</svg>
