<svg version="1.1" id="Layer_1" xmlns="http://www.w3.org/2000/svg" xmlns:xlink="http://www.w3.org/1999/xlink" x="0px" y="0px"
	 width="100%" viewBox="0 0 1000 1000" enable-background="new 0 0 1000 1000" xml:space="preserve">
<path fill="#2E5482" opacity="1.000000" stroke="none" 
	d="
M1.000012,814.000000 
	C1.000000,605.973145 1.000000,397.946259 1.422919,189.490479 
	C2.230093,187.717087 2.831607,186.392822 2.958935,185.024429 
	C3.385503,180.440094 3.228317,175.765793 4.035439,171.258606 
	C7.821796,150.114471 14.054436,129.704330 23.734415,110.481216 
	C33.078472,91.925209 45.361340,75.417641 59.911766,60.620926 
	C64.421417,56.034943 69.085625,51.550968 74.056770,47.481697 
	C79.981934,42.631489 86.138733,38.016113 92.505798,33.764126 
	C104.926025,25.469778 118.264771,18.926153 132.318634,13.821469 
	C146.449356,8.688871 160.794785,4.506404 175.815613,2.919820 
	C176.932220,2.801876 177.941055,1.663821 179.000000,1.000000 
	C394.026855,1.000000 609.053711,1.000000 824.536255,1.414237 
	C827.328613,2.211309 829.672607,2.554975 832.001038,2.983089 
	C852.650269,6.779750 872.685730,12.738534 891.424622,22.179123 
	C901.423706,27.216639 910.768250,33.661846 920.039185,40.010582 
	C933.845398,49.465199 945.969971,60.976360 956.357666,74.004776 
	C967.337952,87.776314 977.085876,102.403481 984.127258,118.800636 
	C990.154541,132.836563 994.705933,147.219589 998.102356,162.051132 
	C998.726990,164.778900 1000.017090,167.354279 1001.000000,170.000000 
	C1001.000000,390.693512 1001.000000,611.387024 1000.594238,832.530396 
	C998.803345,838.248657 997.259766,843.481201 996.060120,848.791443 
	C990.523376,873.299438 980.337036,895.756104 965.963501,916.272217 
	C955.539673,931.150696 943.505127,944.737793 929.308411,956.088684 
	C915.551270,967.088135 900.967590,976.853394 884.612488,983.941040 
	C870.455078,990.076355 855.931763,994.695190 840.942139,998.103455 
	C838.216187,998.723267 835.643433,1000.017212 833.000000,1001.000000 
	C612.639771,1001.000000 392.279602,1001.000000 171.469528,1000.594238 
	C170.677612,999.858948 170.385986,999.330017 169.986145,999.228882 
	C158.794540,996.398376 147.416779,994.164307 136.432648,990.685913 
	C120.334618,985.587891 105.056732,978.206421 91.252174,968.588501 
	C74.126534,956.656738 58.456318,942.917419 45.543152,926.211365 
	C33.072258,910.077454 22.452267,893.012085 15.766891,873.647156 
	C14.281129,869.343445 12.221323,865.214844 11.009842,860.843750 
	C6.950344,846.196899 2.885411,831.529541 2.883612,816.123108 
	C2.883529,815.415344 1.655917,814.707703 1.000012,814.000000 
M646.947754,291.431274 
	C664.920349,277.563019 683.502869,264.691193 704.930298,256.593567 
	C725.207458,248.930634 735.943787,252.794800 744.828247,272.458923 
	C750.481995,284.972534 755.421814,297.992462 758.957825,311.245331 
	C770.496094,354.491516 774.697937,398.981384 780.032776,443.263000 
	C781.126831,452.344482 782.289368,461.440155 784.015503,470.414825 
	C785.101501,476.061035 790.143311,479.477814 795.665039,479.528107 
	C801.001282,479.576691 806.177063,476.292786 807.429688,471.171448 
	C808.194824,468.042999 808.035034,464.550354 807.643677,461.299133 
	C804.858459,438.158539 802.024902,415.022400 798.979675,391.914795 
	C794.434082,357.421783 789.485840,322.983856 778.932007,289.678223 
	C774.045044,274.256134 768.149658,259.226776 758.012939,246.320099 
	C746.934937,232.214951 732.718323,225.913055 714.610779,228.532516 
	C699.151489,230.768890 685.255859,236.955704 671.896362,244.518097 
	C642.287109,261.279083 616.097595,282.658813 591.382507,305.811920 
	C585.185364,311.617401 580.174011,313.302002 571.531189,311.132721 
	C521.528198,298.582367 471.230408,299.915649 421.009277,310.280182 
	C418.127838,310.874847 416.515350,310.183350 414.412354,308.504761 
	C393.859253,292.099426 373.674438,275.176666 352.437500,259.701141 
	C334.116089,246.350174 314.162170,235.508698 291.595215,230.656021 
	C271.684357,226.374512 255.022339,231.601837 242.390106,247.996140 
	C229.841522,264.281830 223.369324,283.345490 217.982651,302.793823 
	C209.565552,333.183380 205.111206,364.331329 201.007355,395.525269 
	C198.271378,416.321808 195.499069,437.115631 193.044754,457.946198 
	C192.077713,466.153748 196.963409,472.112976 204.290878,472.776733 
	C210.998352,473.384308 216.771103,468.483215 217.806961,460.842255 
	C219.976257,444.840607 221.539215,428.747467 224.071442,412.806274 
	C229.133224,380.940826 234.158508,349.052521 240.228500,317.370911 
	C243.672241,299.396667 249.641037,281.963196 259.885376,266.466278 
	C267.633423,254.745529 274.857147,252.278992 288.539856,255.666016 
	C307.129150,260.267639 323.221313,269.986450 338.842346,280.495392 
	C361.550934,295.772369 382.782043,312.957001 402.656097,331.777252 
	C407.587677,336.447327 412.780060,337.721069 419.498260,336.302307 
	C431.853668,333.693054 444.322601,331.433075 456.848297,329.852875 
	C497.783417,324.688660 538.293579,326.714508 578.007080,338.588928 
	C586.128540,341.017242 592.313232,338.861938 598.442078,333.415833 
	C614.247681,319.370941 630.387024,305.701691 646.947754,291.431274 
M459.430573,438.231415 
	C457.637177,427.965271 449.881042,421.377472 440.516632,422.166626 
	C430.683411,422.995270 423.991699,430.556030 423.977325,441.221161 
	C423.923462,481.199402 423.929596,521.177734 423.971436,561.156006 
	C423.983124,572.303589 431.141693,580.098755 441.333679,580.326843 
	C451.784393,580.560730 459.603180,572.947876 459.639221,561.527588 
	C459.767822,520.718994 459.617462,479.909515 459.430573,438.231415 
M534.074036,461.500000 
	C534.075012,494.804657 534.017883,528.109497 534.109680,561.413879 
	C534.140076,572.440125 541.609070,580.223877 551.799377,580.328369 
	C562.018250,580.433167 569.828552,572.713440 569.861267,561.792297 
	C569.982239,521.494080 569.976318,481.195099 569.867798,440.896820 
	C569.838440,430.004639 561.999512,422.068970 551.929443,422.108093 
	C541.838196,422.147308 534.291565,430.081177 534.098145,441.017181 
	C533.983337,447.509552 534.075134,454.005615 534.074036,461.500000 
M196.834793,740.140259 
	C200.667801,740.142822 204.520706,739.901184 208.328659,740.211426 
	C212.812927,740.576660 214.478607,739.119263 214.368225,734.381714 
	C214.069397,721.556274 214.257034,708.719299 214.279510,695.886902 
	C214.281860,694.542114 214.469238,693.197571 214.570786,691.852905 
	C223.111343,703.612366 231.383224,715.155579 237.948105,727.599304 
	C243.213821,737.580383 249.767181,742.000427 261.118774,740.375122 
	C265.671356,739.723328 267.401825,738.994812 267.350006,734.097534 
	C267.111938,711.601685 267.302826,689.101685 267.223846,666.603577 
	C267.177155,653.292419 268.916962,655.198242 255.967468,655.105042 
	C244.855591,655.025085 246.063034,654.149841 246.040115,664.983215 
	C246.014572,677.056763 246.034256,689.130432 246.034256,701.204102 
	C238.433731,690.801697 230.743027,680.637512 225.397079,669.361694 
	C219.655640,657.251587 211.384369,652.775452 198.696274,655.077759 
	C198.373489,655.136292 198.028671,655.112122 197.698029,655.082642 
	C194.260315,654.775940 192.987427,656.325623 192.998947,659.769592 
	C193.083771,685.100769 192.998230,710.432739 193.167618,735.763123 
	C193.177322,737.215027 194.950256,738.655212 196.834793,740.140259 
M556.800415,740.898071 
	C574.384399,744.135559 590.605469,736.155823 598.351501,720.457581 
	C605.703857,705.557129 602.352234,687.185974 590.238037,675.985352 
	C577.289612,664.013428 560.985779,662.651489 545.412354,672.240906 
	C542.001831,666.988586 542.001831,666.988525 535.574158,666.987366 
	C534.241211,666.987122 532.890686,667.126892 531.578552,666.961609 
	C527.552856,666.454651 526.318176,668.347778 526.391235,672.142700 
	C526.551575,680.470703 526.437622,688.803894 526.437500,697.135010 
	C526.437134,716.796387 526.528015,736.458496 526.368408,756.118591 
	C526.333069,760.477112 527.846008,762.203979 532.196411,761.848572 
	C535.341309,761.591675 538.536682,761.618347 541.686584,761.842163 
	C545.766235,762.132141 547.368896,760.612305 547.180908,756.401062 
	C546.896606,750.034241 547.106689,743.645325 547.106689,736.955688 
	C550.547668,738.418579 553.271973,739.576843 556.800415,740.898071 
M722.585022,695.500366 
	C722.583923,687.680725 722.680359,679.858826 722.502075,672.043213 
	C722.464966,670.416992 721.557251,667.501953 720.800903,667.417480 
	C716.533752,666.940918 712.115662,666.677368 707.909424,667.347656 
	C706.191833,667.621399 704.876953,670.421570 703.364014,672.088806 
	C686.617004,659.499023 665.459656,667.652588 655.993896,678.830139 
	C644.032410,692.954651 643.662231,713.825745 655.437073,727.921753 
	C668.221252,743.226013 689.810791,746.244080 703.958496,734.988464 
	C704.488770,740.228760 708.117615,740.406860 712.041077,740.171082 
	C713.698853,740.071411 715.392456,739.969543 717.026611,740.189514 
	C721.592896,740.803955 722.701660,738.579590 722.645569,734.433350 
	C722.474731,721.791077 722.584473,709.145020 722.585022,695.500366 
M404.775238,670.073730 
	C398.577789,677.568970 392.380341,685.064148 385.184021,693.767456 
	C385.184021,681.753113 385.184021,671.347473 385.184021,660.941833 
	C385.184021,644.574097 385.187073,644.628235 368.834229,645.554504 
	C365.972565,645.716675 364.580383,646.597534 364.585388,649.640808 
	C364.632660,678.439514 364.628845,707.238464 364.589905,736.037231 
	C364.585968,738.948242 365.661713,740.324219 368.712341,740.176819 
	C371.867767,740.024414 375.036438,740.148987 378.199310,740.146301 
	C385.176971,740.140320 385.555420,740.114014 385.085419,732.949585 
	C384.532715,724.524414 385.405396,717.020386 393.838440,712.360779 
	C398.971436,720.198730 404.215210,728.273376 409.550873,736.286804 
	C410.441437,737.624390 411.687439,739.679077 412.843292,739.730347 
	C420.027527,740.048889 427.232880,739.890869 435.991974,739.890869 
	C426.009735,724.630737 416.870850,710.659912 407.577759,696.453247 
	C411.940857,691.676697 416.220642,687.045532 420.438446,682.358582 
	C424.609528,677.723572 428.718109,673.032227 432.854095,668.365601 
	C432.481934,667.917114 432.109772,667.468628 431.737579,667.020142 
	C424.276001,667.020142 416.810516,666.896301 409.356262,667.130371 
	C407.958069,667.174316 406.604767,668.648926 404.775238,670.073730 
M503.743652,730.245728 
	C510.305939,723.336060 513.908508,715.196228 514.417358,705.611267 
	C515.238159,690.151245 506.184052,675.596436 491.439087,669.029541 
	C476.650238,662.443054 458.245148,666.026611 447.192383,677.644531 
	C436.247589,689.148926 433.444733,706.367493 440.249908,720.293396 
	C451.923859,744.182617 482.241821,749.214417 503.743652,730.245728 
M290.504944,676.007324 
	C277.113495,690.487244 275.525818,711.586670 286.679169,726.851196 
	C297.494781,741.653564 318.068604,746.268188 335.545776,737.811768 
	C343.869171,733.784424 344.144440,732.842834 339.096771,725.662048 
	C338.140350,724.301392 337.050812,723.014282 336.253754,721.566040 
	C334.712982,718.766479 332.759155,718.347656 330.118347,720.034790 
	C328.864563,720.835815 327.506042,721.497375 326.138184,722.091187 
	C316.287537,726.367615 302.604095,720.810913 301.434662,710.959717 
	C316.585938,710.959717 331.711884,710.825073 346.832550,711.047852 
	C350.971771,711.108765 352.357605,709.646545 352.615723,705.673279 
	C353.620117,690.211243 346.041138,675.833496 333.290680,669.552368 
	C319.348328,662.684143 302.718536,665.029053 290.504944,676.007324 
M775.645813,695.050415 
	C773.691467,700.829285 771.737061,706.608154 769.395203,713.532837 
	C764.600952,698.838684 760.118103,685.451599 755.910767,671.978394 
	C754.726746,668.186768 752.873657,666.522034 748.784119,666.912292 
	C744.987793,667.274475 741.129639,666.969360 737.298950,666.994507 
	C731.677612,667.031372 731.455444,667.338196 733.504456,672.715820 
	C741.551453,693.835144 749.699341,714.916626 757.574463,736.099670 
	C758.391235,738.296875 758.242981,741.270325 757.503784,743.546143 
	C755.670837,749.189453 753.236389,754.637390 750.550598,761.406006 
	C757.957275,761.406006 764.448059,761.514160 770.925842,761.274475 
	C771.773560,761.243164 772.889038,759.553223 773.318848,758.418701 
	C784.328430,729.358337 795.237976,700.260132 806.245789,671.199036 
	C807.494080,667.903503 806.306824,666.941956 803.201111,666.977783 
	C798.538086,667.031555 793.864929,667.167603 789.213379,666.929749 
	C785.970703,666.763977 784.398376,668.058594 783.467468,671.073792 
	C781.065857,678.853027 778.436523,686.561951 775.645813,695.050415 
M634.852112,713.500061 
	C634.851990,692.696655 634.772461,671.892639 634.919800,651.090271 
	C634.948608,647.025330 633.686096,645.254272 629.491516,645.533142 
	C625.846069,645.775452 622.171082,645.641357 618.510986,645.572998 
	C615.697876,645.520508 614.144958,646.525574 614.148621,649.601868 
	C614.183228,678.393799 614.179688,707.185730 614.148743,735.977661 
	C614.145691,738.859436 615.251892,740.272949 618.284302,740.181885 
	C622.274902,740.062073 626.277954,740.018799 630.264282,740.197571 
	C633.759277,740.354370 634.971619,738.867554 634.896729,735.468933 
	C634.742859,728.482422 634.851562,721.490051 634.852112,713.500061 
z"/>
<path fill="#000000" opacity="1.000000" stroke="none" 
	d="
M178.531342,1.000000 
	C177.941055,1.663821 176.932220,2.801876 175.815613,2.919820 
	C160.794785,4.506404 146.449356,8.688871 132.318634,13.821469 
	C118.264771,18.926153 104.926025,25.469778 92.505798,33.764126 
	C86.138733,38.016113 79.981934,42.631489 74.056770,47.481697 
	C69.085625,51.550968 64.421417,56.034943 59.911766,60.620926 
	C45.361340,75.417641 33.078472,91.925209 23.734415,110.481216 
	C14.054436,129.704330 7.821796,150.114471 4.035439,171.258606 
	C3.228317,175.765793 3.385503,180.440094 2.958935,185.024429 
	C2.831607,186.392822 2.230093,187.717087 1.422919,189.030792 
	C1.000000,126.408302 1.000000,63.816605 1.000000,1.000000 
	C60.020702,1.000000 119.041695,1.000000 178.531342,1.000000 
z"/>
<path fill="#000000" opacity="1.000000" stroke="none" 
	d="
M1.000012,814.468628 
	C1.655917,814.707703 2.883529,815.415344 2.883612,816.123108 
	C2.885411,831.529541 6.950344,846.196899 11.009842,860.843750 
	C12.221323,865.214844 14.281129,869.343445 15.766891,873.647156 
	C22.452267,893.012085 33.072258,910.077454 45.543152,926.211365 
	C58.456318,942.917419 74.126534,956.656738 91.252174,968.588501 
	C105.056732,978.206421 120.334618,985.587891 136.432648,990.685913 
	C147.416779,994.164307 158.794540,996.398376 169.986145,999.228882 
	C170.385986,999.330017 170.677612,999.858948 171.009827,1000.594238 
	C114.402847,1001.000000 57.805695,1001.000000 1.000000,1001.000000 
	C1.000000,938.979248 1.000000,876.958313 1.000012,814.468628 
z"/>
<path fill="#000000" opacity="1.000000" stroke="none" 
	d="
M1001.000000,169.531342 
	C1000.017090,167.354279 998.726990,164.778900 998.102356,162.051132 
	C994.705933,147.219589 990.154541,132.836563 984.127258,118.800636 
	C977.085876,102.403481 967.337952,87.776314 956.357666,74.004776 
	C945.969971,60.976360 933.845398,49.465199 920.039185,40.010582 
	C910.768250,33.661846 901.423706,27.216639 891.424622,22.179123 
	C872.685730,12.738534 852.650269,6.779750 832.001038,2.983089 
	C829.672607,2.554975 827.328613,2.211309 824.995972,1.414237 
	C883.592224,1.000000 942.184387,1.000000 1001.000000,1.000000 
	C1001.000000,57.020695 1001.000000,113.041687 1001.000000,169.531342 
z"/>
<path fill="#000000" opacity="1.000000" stroke="none" 
	d="
M833.468628,1001.000000 
	C835.643433,1000.017212 838.216187,998.723267 840.942139,998.103455 
	C855.931763,994.695190 870.455078,990.076355 884.612488,983.941040 
	C900.967590,976.853394 915.551270,967.088135 929.308411,956.088684 
	C943.505127,944.737793 955.539673,931.150696 965.963501,916.272217 
	C980.337036,895.756104 990.523376,873.299438 996.060120,848.791443 
	C997.259766,843.481201 998.803345,838.248657 1000.594238,832.990112 
	C1001.000000,888.927002 1001.000000,944.854004 1001.000000,1001.000000 
	C945.312622,1001.000000 889.625000,1001.000000 833.468628,1001.000000 
z"/>
<path fill="#FDFDFE" opacity="1.000000" stroke="none" 
	d="
M646.670410,291.656830 
	C630.387024,305.701691 614.247681,319.370941 598.442078,333.415833 
	C592.313232,338.861938 586.128540,341.017242 578.007080,338.588928 
	C538.293579,326.714508 497.783417,324.688660 456.848297,329.852875 
	C444.322601,331.433075 431.853668,333.693054 419.498260,336.302307 
	C412.780060,337.721069 407.587677,336.447327 402.656097,331.777252 
	C382.782043,312.957001 361.550934,295.772369 338.842346,280.495392 
	C323.221313,269.986450 307.129150,260.267639 288.539856,255.666016 
	C274.857147,252.278992 267.633423,254.745529 259.885376,266.466278 
	C249.641037,281.963196 243.672241,299.396667 240.228500,317.370911 
	C234.158508,349.052521 229.133224,380.940826 224.071442,412.806274 
	C221.539215,428.747467 219.976257,444.840607 217.806961,460.842255 
	C216.771103,468.483215 210.998352,473.384308 204.290878,472.776733 
	C196.963409,472.112976 192.077713,466.153748 193.044754,457.946198 
	C195.499069,437.115631 198.271378,416.321808 201.007355,395.525269 
	C205.111206,364.331329 209.565552,333.183380 217.982651,302.793823 
	C223.369324,283.345490 229.841522,264.281830 242.390106,247.996140 
	C255.022339,231.601837 271.684357,226.374512 291.595215,230.656021 
	C314.162170,235.508698 334.116089,246.350174 352.437500,259.701141 
	C373.674438,275.176666 393.859253,292.099426 414.412354,308.504761 
	C416.515350,310.183350 418.127838,310.874847 421.009277,310.280182 
	C471.230408,299.915649 521.528198,298.582367 571.531189,311.132721 
	C580.174011,313.302002 585.185364,311.617401 591.382507,305.811920 
	C616.097595,282.658813 642.287109,261.279083 671.896362,244.518097 
	C685.255859,236.955704 699.151489,230.768890 714.610779,228.532516 
	C732.718323,225.913055 746.934937,232.214951 758.012939,246.320099 
	C768.149658,259.226776 774.045044,274.256134 778.932007,289.678223 
	C789.485840,322.983856 794.434082,357.421783 798.979675,391.914795 
	C802.024902,415.022400 804.858459,438.158539 807.643677,461.299133 
	C808.035034,464.550354 808.194824,468.042999 807.429688,471.171448 
	C806.177063,476.292786 801.001282,479.576691 795.665039,479.528107 
	C790.143311,479.477814 785.101501,476.061035 784.015503,470.414825 
	C782.289368,461.440155 781.126831,452.344482 780.032776,443.263000 
	C774.697937,398.981384 770.496094,354.491516 758.957825,311.245331 
	C755.421814,297.992462 750.481995,284.972534 744.828247,272.458923 
	C735.943787,252.794800 725.207458,248.930634 704.930298,256.593567 
	C683.502869,264.691193 664.920349,277.563019 646.670410,291.656830 
z"/>
<path fill="#FDFDFE" opacity="1.000000" stroke="none" 
	d="
M459.501587,438.665894 
	C459.617462,479.909515 459.767822,520.718994 459.639221,561.527588 
	C459.603180,572.947876 451.784393,580.560730 441.333679,580.326843 
	C431.141693,580.098755 423.983124,572.303589 423.971436,561.156006 
	C423.929596,521.177734 423.923462,481.199402 423.977325,441.221161 
	C423.991699,430.556030 430.683411,422.995270 440.516632,422.166626 
	C449.881042,421.377472 457.637177,427.965271 459.501587,438.665894 
z"/>
<path fill="#FDFDFE" opacity="1.000000" stroke="none" 
	d="
M534.074036,461.000000 
	C534.075134,454.005615 533.983337,447.509552 534.098145,441.017181 
	C534.291565,430.081177 541.838196,422.147308 551.929443,422.108093 
	C561.999512,422.068970 569.838440,430.004639 569.867798,440.896820 
	C569.976318,481.195099 569.982239,521.494080 569.861267,561.792297 
	C569.828552,572.713440 562.018250,580.433167 551.799377,580.328369 
	C541.609070,580.223877 534.140076,572.440125 534.109680,561.413879 
	C534.017883,528.109497 534.075012,494.804657 534.074036,461.000000 
z"/>
<path fill="#FEFEFE" opacity="1.000000" stroke="none" 
	d="
M196.368683,740.120544 
	C194.950256,738.655212 193.177322,737.215027 193.167618,735.763123 
	C192.998230,710.432739 193.083771,685.100769 192.998947,659.769592 
	C192.987427,656.325623 194.260315,654.775940 197.698029,655.082642 
	C198.028671,655.112122 198.373489,655.136292 198.696274,655.077759 
	C211.384369,652.775452 219.655640,657.251587 225.397079,669.361694 
	C230.743027,680.637512 238.433731,690.801697 246.034256,701.204102 
	C246.034256,689.130432 246.014572,677.056763 246.040115,664.983215 
	C246.063034,654.149841 244.855591,655.025085 255.967468,655.105042 
	C268.916962,655.198242 267.177155,653.292419 267.223846,666.603577 
	C267.302826,689.101685 267.111938,711.601685 267.350006,734.097534 
	C267.401825,738.994812 265.671356,739.723328 261.118774,740.375122 
	C249.767181,742.000427 243.213821,737.580383 237.948105,727.599304 
	C231.383224,715.155579 223.111343,703.612366 214.570786,691.852905 
	C214.469238,693.197571 214.281860,694.542114 214.279510,695.886902 
	C214.257034,708.719299 214.069397,721.556274 214.368225,734.381714 
	C214.478607,739.119263 212.812927,740.576660 208.328659,740.211426 
	C204.520706,739.901184 200.667801,740.142822 196.368683,740.120544 
z"/>
<path fill="#FBFCFC" opacity="1.000000" stroke="none" 
	d="
M556.398315,740.816528 
	C553.271973,739.576843 550.547668,738.418579 547.106689,736.955688 
	C547.106689,743.645325 546.896606,750.034241 547.180908,756.401062 
	C547.368896,760.612305 545.766235,762.132141 541.686584,761.842163 
	C538.536682,761.618347 535.341309,761.591675 532.196411,761.848572 
	C527.846008,762.203979 526.333069,760.477112 526.368408,756.118591 
	C526.528015,736.458496 526.437134,716.796387 526.437500,697.135010 
	C526.437622,688.803894 526.551575,680.470703 526.391235,672.142700 
	C526.318176,668.347778 527.552856,666.454651 531.578552,666.961609 
	C532.890686,667.126892 534.241211,666.987122 535.574158,666.987366 
	C542.001831,666.988525 542.001831,666.988586 545.412354,672.240906 
	C560.985779,662.651489 577.289612,664.013428 590.238037,675.985352 
	C602.352234,687.185974 605.703857,705.557129 598.351501,720.457581 
	C590.605469,736.155823 574.384399,744.135559 556.398315,740.816528 
M567.005737,685.924194 
	C565.845764,685.831360 564.681580,685.622437 563.526489,685.664429 
	C556.018188,685.937073 550.559326,689.389160 547.569214,696.353943 
	C544.494629,703.515686 545.817688,711.678528 551.089539,716.705444 
	C556.631042,721.989319 563.225220,723.382202 570.461426,720.737183 
	C577.499573,718.164612 581.709167,711.413696 581.470886,703.464783 
	C581.208374,694.708618 576.860718,689.130676 567.005737,685.924194 
z"/>
<path fill="#FCFCFD" opacity="1.000000" stroke="none" 
	d="
M722.584961,696.000366 
	C722.584473,709.145020 722.474731,721.791077 722.645569,734.433350 
	C722.701660,738.579590 721.592896,740.803955 717.026611,740.189514 
	C715.392456,739.969543 713.698853,740.071411 712.041077,740.171082 
	C708.117615,740.406860 704.488770,740.228760 703.958496,734.988464 
	C689.810791,746.244080 668.221252,743.226013 655.437073,727.921753 
	C643.662231,713.825745 644.032410,692.954651 655.993896,678.830139 
	C665.459656,667.652588 686.617004,659.499023 703.364014,672.088806 
	C704.876953,670.421570 706.191833,667.621399 707.909424,667.347656 
	C712.115662,666.677368 716.533752,666.940918 720.800903,667.417480 
	C721.557251,667.501953 722.464966,670.416992 722.502075,672.043213 
	C722.680359,679.858826 722.583923,687.680725 722.584961,696.000366 
M670.154175,693.926086 
	C665.769348,703.359070 667.184082,712.651123 673.821655,718.015137 
	C681.555542,724.265076 693.163147,722.978638 699.241577,715.197815 
	C705.370239,707.352783 703.903870,695.332397 696.078796,689.269958 
	C688.093323,683.083313 677.224854,684.807190 670.154175,693.926086 
z"/>
<path fill="#FEFEFE" opacity="1.000000" stroke="none" 
	d="
M405.002991,669.768494 
	C406.604767,668.648926 407.958069,667.174316 409.356262,667.130371 
	C416.810516,666.896301 424.276001,667.020142 431.737579,667.020142 
	C432.109772,667.468628 432.481934,667.917114 432.854095,668.365601 
	C428.718109,673.032227 424.609528,677.723572 420.438446,682.358582 
	C416.220642,687.045532 411.940857,691.676697 407.577759,696.453247 
	C416.870850,710.659912 426.009735,724.630737 435.991974,739.890869 
	C427.232880,739.890869 420.027527,740.048889 412.843292,739.730347 
	C411.687439,739.679077 410.441437,737.624390 409.550873,736.286804 
	C404.215210,728.273376 398.971436,720.198730 393.838440,712.360779 
	C385.405396,717.020386 384.532715,724.524414 385.085419,732.949585 
	C385.555420,740.114014 385.176971,740.140320 378.199310,740.146301 
	C375.036438,740.148987 371.867767,740.024414 368.712341,740.176819 
	C365.661713,740.324219 364.585968,738.948242 364.589905,736.037231 
	C364.628845,707.238464 364.632660,678.439514 364.585388,649.640808 
	C364.580383,646.597534 365.972565,645.716675 368.834229,645.554504 
	C385.187073,644.628235 385.184021,644.574097 385.184021,660.941833 
	C385.184021,671.347473 385.184021,681.753113 385.184021,693.767456 
	C392.380341,685.064148 398.577789,677.568970 405.002991,669.768494 
z"/>
<path fill="#FDFDFD" opacity="1.000000" stroke="none" 
	d="
M503.496826,730.497559 
	C482.241821,749.214417 451.923859,744.182617 440.249908,720.293396 
	C433.444733,706.367493 436.247589,689.148926 447.192383,677.644531 
	C458.245148,666.026611 476.650238,662.443054 491.439087,669.029541 
	C506.184052,675.596436 515.238159,690.151245 514.417358,705.611267 
	C513.908508,715.196228 510.305939,723.336060 503.496826,730.497559 
M458.553314,697.329041 
	C455.972534,705.187134 457.329742,712.213684 463.603455,717.733765 
	C471.731384,724.885315 484.194702,723.261353 490.388397,714.535095 
	C496.442047,706.006104 494.033936,693.773254 485.220520,688.283081 
	C475.759613,682.389587 464.134949,686.061951 458.553314,697.329041 
z"/>
<path fill="#FCFDFD" opacity="1.000000" stroke="none" 
	d="
M290.761719,675.760132 
	C302.718536,665.029053 319.348328,662.684143 333.290680,669.552368 
	C346.041138,675.833496 353.620117,690.211243 352.615723,705.673279 
	C352.357605,709.646545 350.971771,711.108765 346.832550,711.047852 
	C331.711884,710.825073 316.585938,710.959717 301.434662,710.959717 
	C302.604095,720.810913 316.287537,726.367615 326.138184,722.091187 
	C327.506042,721.497375 328.864563,720.835815 330.118347,720.034790 
	C332.759155,718.347656 334.712982,718.766479 336.253754,721.566040 
	C337.050812,723.014282 338.140350,724.301392 339.096771,725.662048 
	C344.144440,732.842834 343.869171,733.784424 335.545776,737.811768 
	C318.068604,746.268188 297.494781,741.653564 286.679169,726.851196 
	C275.525818,711.586670 277.113495,690.487244 290.761719,675.760132 
M308.964417,685.241028 
	C304.906067,687.447754 301.943359,690.493530 300.929810,695.494263 
	C311.355560,695.494263 321.441101,695.494263 331.623108,695.494263 
	C328.421997,685.081421 320.428772,681.336670 308.964417,685.241028 
z"/>
<path fill="#FCFCFD" opacity="1.000000" stroke="none" 
	d="
M775.771973,694.674683 
	C778.436523,686.561951 781.065857,678.853027 783.467468,671.073792 
	C784.398376,668.058594 785.970703,666.763977 789.213379,666.929749 
	C793.864929,667.167603 798.538086,667.031555 803.201111,666.977783 
	C806.306824,666.941956 807.494080,667.903503 806.245789,671.199036 
	C795.237976,700.260132 784.328430,729.358337 773.318848,758.418701 
	C772.889038,759.553223 771.773560,761.243164 770.925842,761.274475 
	C764.448059,761.514160 757.957275,761.406006 750.550598,761.406006 
	C753.236389,754.637390 755.670837,749.189453 757.503784,743.546143 
	C758.242981,741.270325 758.391235,738.296875 757.574463,736.099670 
	C749.699341,714.916626 741.551453,693.835144 733.504456,672.715820 
	C731.455444,667.338196 731.677612,667.031372 737.298950,666.994507 
	C741.129639,666.969360 744.987793,667.274475 748.784119,666.912292 
	C752.873657,666.522034 754.726746,668.186768 755.910767,671.978394 
	C760.118103,685.451599 764.600952,698.838684 769.395203,713.532837 
	C771.737061,706.608154 773.691467,700.829285 775.771973,694.674683 
z"/>
<path fill="#FAFBFC" opacity="1.000000" stroke="none" 
	d="
M634.852112,714.000122 
	C634.851562,721.490051 634.742859,728.482422 634.896729,735.468933 
	C634.971619,738.867554 633.759277,740.354370 630.264282,740.197571 
	C626.277954,740.018799 622.274902,740.062073 618.284302,740.181885 
	C615.251892,740.272949 614.145691,738.859436 614.148743,735.977661 
	C614.179688,707.185730 614.183228,678.393799 614.148621,649.601868 
	C614.144958,646.525574 615.697876,645.520508 618.510986,645.572998 
	C622.171082,645.641357 625.846069,645.775452 629.491516,645.533142 
	C633.686096,645.254272 634.948608,647.025330 634.919800,651.090271 
	C634.772461,671.892639 634.851990,692.696655 634.852112,714.000122 
z"/>
<path fill="#315683" opacity="1.000000" stroke="none" 
	d="
M567.431641,685.961914 
	C576.860718,689.130676 581.208374,694.708618 581.470886,703.464783 
	C581.709167,711.413696 577.499573,718.164612 570.461426,720.737183 
	C563.225220,723.382202 556.631042,721.989319 551.089539,716.705444 
	C545.817688,711.678528 544.494629,703.515686 547.569214,696.353943 
	C550.559326,689.389160 556.018188,685.937073 563.526489,685.664429 
	C564.681580,685.622437 565.845764,685.831360 567.431641,685.961914 
z"/>
<path fill="#315683" opacity="1.000000" stroke="none" 
	d="
M670.376953,693.618652 
	C677.224854,684.807190 688.093323,683.083313 696.078796,689.269958 
	C703.903870,695.332397 705.370239,707.352783 699.241577,715.197815 
	C693.163147,722.978638 681.555542,724.265076 673.821655,718.015137 
	C667.184082,712.651123 665.769348,703.359070 670.376953,693.618652 
z"/>
<path fill="#315683" opacity="1.000000" stroke="none" 
	d="
M458.706726,696.969849 
	C464.134949,686.061951 475.759613,682.389587 485.220520,688.283081 
	C494.033936,693.773254 496.442047,706.006104 490.388397,714.535095 
	C484.194702,723.261353 471.731384,724.885315 463.603455,717.733765 
	C457.329742,712.213684 455.972534,705.187134 458.706726,696.969849 
z"/>
<path fill="#385B87" opacity="1.000000" stroke="none" 
	d="
M309.310364,685.084473 
	C320.428772,681.336670 328.421997,685.081421 331.623108,695.494263 
	C321.441101,695.494263 311.355560,695.494263 300.929810,695.494263 
	C301.943359,690.493530 304.906067,687.447754 309.310364,685.084473 
z"/>
</svg>