<?xml version="1.0" encoding="UTF-8"?>
<svg width="16" height="16" gpa:keywords="system system-run emblem pegged cogged wheel circle" gpa:version="1" xmlns="http://www.w3.org/2000/svg" xmlns:gpa="https://www.gtk.org/grappa">
 <path id="path0" class="foreground-stroke transparent-fill" d="m8 13v2m0-2c1.11 0 2.14-0.36 2.97-0.98m-2.97 0.98c-1.0696 7.42e-4 -2.1109-0.34288-2.97-0.98m2.97-9.02v-2m0 2c1.11 0 2.14 0.36 2.97 0.98m-2.97-0.98c-1.11 0-2.14 0.36-2.97 0.98m5.94 0 1.14-1.64m-1.14 1.64c0.84058 0.61988 1.4664 1.487 1.79 2.48m-7.73-2.48-1.13-1.64m1.13 1.64c-0.84058 0.61988-1.4664 1.487-1.79 2.48m7.73 5.56 1.14 1.65m-1.14-1.65c0.84058-0.61988 1.4664-1.487 1.79-2.48m-7.73 2.48-1.13 1.65m1.13-1.65c-0.84058-0.61988-1.4664-1.487-1.79-2.48m2.4e-7 -3.08-1.9-0.62m1.9 0.62c-0.32 1-0.32 2.09 0 3.08m0 0-1.9 0.63m11.42-0.63 1.9 0.63m-1.9-0.63c0.32-1 0.32-2.09 0-3.08m0 0 1.9-0.62" fill="none" stroke="#000" stroke-linecap="round" stroke-linejoin="round" stroke-width="2"/>
</svg>
