<?xml version="1.0" encoding="UTF-8"?>
<svg id="svg5" width="16px" height="16px" version="1.1" viewBox="0 0 16 16" xmlns="http://www.w3.org/2000/svg">
 <path id="path6" transform="translate(0,1)" d="m7.9961-1c-0.55078 0-1 0.48047-1 1.0703v13.859c0 0.58984 0.44922 1.0703 1 1.0703 0.55078 0 1-0.48047 1-1.0703v-13.859c0-0.58984-0.44922-1.0703-1-1.0703zm-3 3c-0.55078 0-1 0.44922-1 1v8c0 0.55078 0.44922 1 1 1 0.55078 0 1-0.44922 1-1v-8c0-0.55078-0.44922-1-1-1zm6 0c-0.55078 0-1 0.44922-1 1v8c-1e-7 0.55078 0.44922 1 1 1 0.55078 0 1-0.44922 1-1v-8c0-0.55078-0.44922-1-1-1zm-8.9961 3c-0.55078 0-1 0.44922-1 1v2c0 0.55078 0.44922 1 1 1 0.55078 0 1-0.44922 1-1v-2c0-0.55078-0.44922-1-1-1zm12 0c-0.55078 0-1 0.44922-1 1v2c0 0.55078 0.44922 1 1 1 0.55078 0 1-0.44922 1-1v-2c0-0.55078-0.44922-1-1-1z"/>
</svg>
