<?xml version="1.0" encoding="UTF-8"?>
<svg id="svg1" width="16" height="16" gpa:keywords="media playback loop playlist repeat" gpa:state="0" gpa:version="1" version="1.1" xmlns="http://www.w3.org/2000/svg" xmlns:gpa="https://www.gtk.org/grappa">
 <path id="path0-7" d="m4 2c-1.1528 0-2.1975 0.49609-2.9297 1.2852-0.028965 0.026364-0.056356 0.054407-0.082031 0.083984-0.21012 0.24035-0.39048 0.50804-0.53906 0.79492-0.004701 0.00901-0.009037 0.018297-0.013672 0.027344-0.15543 0.30581-0.27249 0.63451-0.3457 0.97852-0.0056032 0.02616-0.012495 0.051784-0.017578 0.078125-0.020319 0.1059-0.035123 0.21376-0.046875 0.32227-0.0015725 0.014469-0.0044438 0.030409-0.0058594 0.044922-0.0123 0.12711-0.019531 0.25478-0.019531 0.38477v4c0 0.12999 0.0072307 0.25765 0.019531 0.38477v0.0019c0.0014155 0.01451 0.0042869 0.0285 0.0058594 0.04297 0.011752 0.10851 0.026556 0.21636 0.046875 0.32226 0.0050834 0.02634 0.011975 0.05196 0.017578 0.07813 0.073217 0.34401 0.19027 0.6727 0.3457 0.97852 0.004634 9e-3 0.008971 0.01834 0.013672 0.02734 0.14858 0.28688 0.32895 0.55457 0.53906 0.79492 0.025676 0.02958 0.053066 0.05762 0.082031 0.08399 0.73223 0.78912 1.7769 1.2852 2.9297 1.2852h0.5c0.55228 0 1-0.44772 1-1s-0.44772-1-1-1h-0.5c-0.57458 0-1.0867-0.23391-1.4492-0.61328-0.017812-0.02428-0.036711-0.04774-0.056641-0.07031-0.22991-0.26299-0.39156-0.58273-0.45898-0.93945-3.698e-4 -2e-3 -0.00159-0.0039-0.00195-0.0059-0.010294-0.05541-0.017797-0.11282-0.02344-0.16992-0.0063589-0.065831-0.0097659-0.1334-0.0097658-0.20113v-4c1.7e-6 -0.12722 0.011218-0.25089 0.033203-0.37109 0.066722-0.35918 0.22972-0.68082 0.46094-0.94531 0.019929-0.022573 0.038829-0.046034 0.056641-0.070313 0.36252-0.37938 0.87463-0.61328 1.4492-0.61328h8c0.57459 0 1.0867 0.23389 1.4492 0.61328 0.01781 0.024278 0.03671 0.04774 0.05664 0.070313 0.19268 0.22041 0.33838 0.48105 0.41992 0.76953 0.0053 0.019225 0.0089 0.039128 0.01367 0.058594 0.0097 0.03896 0.01993 0.077277 0.02734 0.11719 0.02199 0.12021 0.033209 0.24388 0.033209 0.37109v4c0 0.12933-0.01245 0.25489-0.03516 0.37695-0.0071 0.03783-0.01615 0.07436-0.02539 0.11133-0.0058 0.02345-0.01102 0.04721-0.01758 0.07031-0.08214 0.28373-0.22599 0.54044-0.41602 0.75781-0.01993 0.02257-0.03883 0.04603-0.05664 0.07031-0.36252 0.37938-0.87463 0.61329-1.4492 0.61329h-1.5859l0.29297-0.29297c0.39042-0.39051 0.39042-1.0236 0-1.4141-0.1875-0.18755-0.44183-0.29293-0.70703-0.29297-0.2652 4e-5 -0.51953 0.10542-0.70703 0.29297l-2 2c-0.39037 0.39053-0.39037 1.0235 0 1.4141l2 2c0.39051 0.39042 1.0236 0.39042 1.4141 0 0.39042-0.39051 0.39042-1.0236 0-1.4141l-0.29297-0.29297h1.5859c1.1528 0 2.1975-0.49608 2.9297-1.2852 0.02896-0.02636 0.05636-0.05441 0.08203-0.08399 0.21486-0.24578 0.39844-0.52016 0.54883-0.81445l0.0039-0.0078c0.16549-0.3256 0.28951-0.67655 0.36133-1.0449 7.57e-4 -0.0039 0.0012-0.0078 2e-3 -0.01172 0.02302-0.12 0.04074-0.24193 0.05274-0.36523v-0.0019c0.012255-0.12717 0.019486-0.25484 0.019486-0.38482v-4c-3e-6 -0.12998-0.0072-0.25961-0.01953-0.38672-0.0014-0.014514-0.0043-0.028499-0.0059-0.042969-0.01219-0.11249-0.02744-0.2243-0.04883-0.33398-0.0044-0.022456-0.01084-0.044083-0.01563-0.066406-0.14439-0.67838-0.4587-1.2978-0.89844-1.8008-0.02567-0.029577-0.05307-0.05762-0.08203-0.083984-0.73218-0.78894-1.7769-1.2852-2.9296-1.2852h-1z" stop-color="#000000" stroke-linecap="round" stroke-linejoin="round"/>
</svg>
