<?xml version="1.0" encoding="UTF-8"?>
<svg id="svg1" width="16" height="16" gpa:keywords="media playback loop playlist repeat media-playlist-repeat-song" gpa:state="0" gpa:version="1" version="1.1" xmlns="http://www.w3.org/2000/svg" xmlns:gpa="https://www.gtk.org/grappa">
 <style id="style1" type="text/css">.not-initial-state {
      display: none;
    }</style>
 <path id="path0-7" d="m4 2c-0.72051 0-1.3982 0.19327-1.9844 0.53125-0.11723 0.067596-0.23038 0.14197-0.33984 0.2207-0.10946 0.078735-0.21551 0.16287-0.31641 0.25195-0.10089 0.089081-0.19753 0.18262-0.28906 0.28125-0.02897 0.026364-0.056361 0.054407-0.082031 0.083984-0.10506 0.12017-0.20304 0.24803-0.29297 0.38086s-0.1718 0.27062-0.24609 0.41406c-0.0024549 0.0047061-0.0054658 0.0088883-0.0078125 0.013672-0.0017807 0.0036299-0.0040296 0.010072-0.0058594 0.013672-0.077716 0.15291-0.14528 0.31121-0.20312 0.47461-0.057845 0.1634-0.10597 0.3319-0.14258 0.50391-0.0056 0.02616-0.012488 0.051784-0.017578 0.078125-0.02032 0.1059-0.035125 0.21376-0.046875 0.32227-2.8078e-4 0.0025391 3.3915e-4 0.0051984 0 0.0078125-0.0016212 0.011746-0.0047118 0.023262-0.0058594 0.035156v0.0019532c-0.012266 0.12711-0.019531 0.25478-0.019531 0.38477v4c0 0.12999 0.0072002 0.25765 0.019531 0.38477v0.001953c0.0014 0.01451 0.0042594 0.028499 0.0058594 0.042969 0.01175 0.10851 0.026565 0.21636 0.046875 0.32226 0.0051 0.02634 0.011968 0.051935 0.017578 0.078125 0.07322 0.34401 0.19027 0.6727 0.3457 0.97852 0.0046 9e-3 0.0089999 0.018344 0.013672 0.027344 0.14858 0.28688 0.32895 0.55457 0.53906 0.79492 0.02568 0.02958 0.053071 0.057615 0.082031 0.083985 0.27457 0.29588 0.59363 0.55112 0.94531 0.75391 0.11723 0.067594 0.23713 0.12988 0.36133 0.18555s0.25244 0.10355 0.38281 0.14648 0.26269 0.079957 0.39844 0.10938c0.27149 0.058837 0.55359 0.089844 0.8418 0.089844h0.5c0.069036 0 0.13607-0.00621 0.20117-0.019531s0.12768-0.033293 0.1875-0.058594c0.02991-0.012651 0.059552-0.027574 0.087891-0.042969 0.028339-0.015394 0.055431-0.030857 0.082031-0.048828 0.0266-0.017971 0.053431-0.038214 0.078125-0.058594 0.024694-0.020379 0.047692-0.041832 0.070312-0.064453 0.022621-0.02262 0.044074-0.045618 0.064453-0.070312s0.040623-0.051525 0.058594-0.078125c0.053912-0.079801 0.095782-0.16778 0.125-0.26172s0.044922-0.19332 0.044922-0.29688c0-0.034518-0.0024454-0.067945-0.0058594-0.10156-0.006828-0.067235-0.019584-0.13269-0.039062-0.19531-0.0097393-0.031313-0.020552-0.061887-0.033203-0.091797-0.012651-0.029909-0.027574-0.059552-0.042969-0.08789-0.015394-0.028339-0.030857-0.055432-0.048828-0.082032s-0.038214-0.053431-0.058594-0.078125-0.041833-0.047692-0.064453-0.070312c-0.13572-0.13572-0.31057-0.23348-0.50586-0.27344-0.032549-0.00666-0.065992-0.010258-0.099609-0.013672s-0.067045-0.005859-0.10156-0.005859h-0.5c-0.071822 0-0.14319-0.004582-0.21289-0.011719-0.0697-0.007137-0.13784-0.017321-0.20508-0.03125-0.13448-0.027857-0.26414-0.068144-0.38672-0.12109-0.061292-0.026475-0.11993-0.055661-0.17773-0.087891-0.17342-0.096689-0.33085-0.21906-0.4668-0.36133-0.01781-0.02428-0.036711-0.047743-0.056641-0.070313-0.057478-0.065747-0.11162-0.1345-0.16016-0.20703v-0.001953c-0.048755-0.072791-0.091903-0.14757-0.13086-0.22656-0.07758-0.1574-0.13426-0.32554-0.16797-0.50391v-0.001953l-0.0019531-0.001953v-0.001953c-7.137e-4 -0.003822-0.0012659-0.007875-0.0019531-0.011719-0.0018851-0.010545-0.0041651-0.020564-0.0058594-0.03125-0.0065973-0.04161-0.011449-0.084664-0.015625-0.12695-0.0063102-0.065831-0.0097656-0.13344-0.0097656-0.20117v-4c0-0.0043216-2.8e-5 -0.0093516 0-0.013672 5.987e-4 -0.099465 0.0073575-0.19586 0.021484-0.29102 0.0032941-0.022189 0.0077038-0.044449 0.011719-0.066406v-0.0019531l0.0019531-0.0019531v-0.0019531c0.032723-0.17314 0.087959-0.33678 0.16211-0.49023v-0.0019531c0.07455-0.15392 0.16904-0.29822 0.2793-0.42773 0.0058508-0.0068714 0.011637-0.012735 0.017578-0.019531 0.007812-0.008848 0.015946-0.018227 0.023438-0.027344 0.011622-0.014142 0.022374-0.028206 0.033203-0.042969 0.045316-0.047422 0.092758-0.092062 0.14258-0.13477 0.14946-0.12811 0.31808-0.23503 0.50195-0.31445 0.061292-0.026475 0.12502-0.049938 0.18945-0.070312 0.064435-0.020374 0.13003-0.036853 0.19727-0.050781 0.067238-0.013928 0.13538-0.024113 0.20508-0.03125 0.0697-0.0071368 0.14107-0.011719 0.21289-0.011719h0.5c0.55228 0 1-0.44772 1-1s-0.44772-1-1-1h-0.46875-0.03125zm7.5 0c-0.55228 0-1 0.44772-1 1s0.44772 1 1 1h0.5c0.57457 6.7e-6 1.0867 0.23392 1.4492 0.61328l0.001953 0.0019532c0.017246 0.023352 0.035473 0.046599 0.054687 0.068359 0.053979 0.061746 0.10416 0.12752 0.15039 0.19531 0.001033 0.0015202 0.002877 0.0023833 0.003906 0.0039063 0.038436 0.056687 0.072928 0.11524 0.10547 0.17578 0.002059 0.0038451 0.003825 0.0078586 0.005859 0.011719 0.03095 0.058502 0.058923 0.11792 0.083985 0.17969 0.002634 0.0065131 0.005245 0.012983 0.007812 0.019531 0.005985 0.015214 0.010011 0.031477 0.015625 0.046875 0.019547 0.053782 0.03781 0.10813 0.052735 0.16406 0.002305 0.010428 0.005276 0.020902 0.007812 0.03125 0.005118 0.020554 0.010704 0.040022 0.015625 0.060547 0.003568 0.016541 0.006609 0.034076 0.009766 0.050781v0.0019531l0.001953 0.0019531v0.0019531c0.003962 0.021647 0.008459 0.042581 0.011719 0.064453 0.014841 0.099584 0.021484 0.20233 0.021484 0.30664v4c0 0.010969 1.78e-4 0.022289 0 0.033203-8.83e-4 0.057845-0.00426 0.1155-0.009766 0.17188-6.5e-5 6.43e-4 6.6e-5 0.001311 0 0.001953-0.005494 0.055709-0.01351 0.10978-0.023437 0.16406-3.63e-4 0.001979-0.001585 0.003881-0.001953 0.005859-0.001001 0.005335-0.002833 0.010337-0.003906 0.015625-0.013374 0.067692-0.030741 0.13438-0.050782 0.19922-0.00916 0.029627-0.018802 0.058887-0.029297 0.087891-0.015914 0.043962-0.033857 0.086479-0.052734 0.12891-0.013134 0.029562-0.026497 0.059104-0.041016 0.08789-0.025878 0.051203-0.053906 0.1018-0.083984 0.15039-0.006726 0.010866-0.012603 0.022472-0.019531 0.033203-0.003021 0.004685-0.006706 0.009013-0.009766 0.013672-0.043121 0.065576-0.088307 0.12928-0.13867 0.18945-0.009524 0.011382-0.019526 0.022027-0.029297 0.033203-0.01993 0.02257-0.03883 0.046033-0.05664 0.070313-0.3172 0.33197-0.74842 0.55161-1.2363 0.60156-0.069701 0.007137-0.14107 0.011719-0.21289 0.011719h-1.5859l0.29297-0.29297c0.39042-0.39051 0.39042-1.0236 0-1.4141-0.1875-0.18755-0.44183-0.29293-0.70703-0.29297-0.2652 4e-5 -0.51953 0.10542-0.70703 0.29297l-2 2c-0.39037 0.39053-0.39037 1.0235 0 1.4141l2 2c0.39051 0.39042 1.0236 0.39042 1.4141 0 0.39042-0.39051 0.39042-1.0236 0-1.4141l-0.29297-0.29297h1.5547 0.03125c1.1528-1.9e-5 2.1975-0.4961 2.9297-1.2852 0.028959-0.02636 0.056361-0.054385 0.082031-0.083985 0.10511-0.12024 0.20305-0.24794 0.29297-0.38086 0.001812-0.002677 0.004052-0.00513 0.005859-0.007812 0.091425-0.13586 0.17488-0.27891 0.25-0.42578l0.003906-0.007812c0.004249-0.008361 0.007524-0.016997 0.011719-0.025391 0.076024-0.15224 0.1428-0.31018 0.19922-0.47266 0.032938-0.09401 0.056102-0.19209 0.082031-0.28906 0.017009-0.06411 0.038844-0.12614 0.052734-0.19141 0.003645-0.017025 0.007833-0.033863 0.011719-0.050781 0.0012-0.005227 0.002789-0.010365 0.003906-0.015625 7.57e-4 -0.0039 0.001153-0.007799 0.001953-0.011719 0.020315-0.1059 0.035104-0.21374 0.046875-0.32226 0.001532-0.013852 0.004322-0.028968 0.00586-0.042969v-0.001953c4.46e-4 -0.004666 0.00152-0.009006 0.001953-0.013672 0.011427-0.12248 0.017578-0.24589 0.017578-0.37109v-4c0-0.014335 1.72e-4 -0.028688 0-0.042969-0.001382-0.11492-0.008667-0.2293-0.019531-0.3418v-0.0019532c-0.0014-0.014514-0.00426-0.028499-0.00586-0.042969-0.011759-0.10852-0.026655-0.21631-0.046875-0.32227-7.52e-4 -0.0038868-0.001133-0.00786-0.001953-0.011719-0.0044-0.022456-0.010835-0.044083-0.015625-0.066406-0.015125-0.07106-0.031978-0.14124-0.050781-0.21094-0.037293-0.13811-0.083532-0.27236-0.13477-0.4043-9.6e-4 -0.0024737-9.87e-4 -0.0053412-0.001953-0.0078125-0.047302-0.12149-0.099816-0.24002-0.1582-0.35547-0.0046-9e-3 -0.009002-0.018344-0.013672-0.027344-0.066156-0.12837-0.13965-0.25335-0.21875-0.37305-0.079399-0.12015-0.16429-0.23542-0.25586-0.3457-0.021232-0.025571-0.042596-0.051169-0.064453-0.076172-0.02567-0.029577-0.053072-0.05762-0.082031-0.083984-0.27454-0.29585-0.59362-0.55111-0.94531-0.75391-0.23445-0.13519-0.4834-0.24616-0.74414-0.33203-0.39112-0.12883-0.80797-0.19922-1.2402-0.19922h-0.03125-0.46875z" stop-color="#000000" stroke-linecap="round" stroke-linejoin="round"/>
 <path id="path1" d="m8 1.25c-0.554 0-1 0.446-1 1v5.5c0 0.554 0.446 1 1 1s1-0.446 1-1v-5.5c0-0.554-0.446-1-1-1z" stop-color="#000000" stroke-linecap="round" stroke-linejoin="round"/>
</svg>
