<?xml version="1.0" encoding="UTF-8"?>
<svg
   height="13.996551"
   viewBox="0 0 14.812613 13.996551"
   width="14.812613"
   version="1.1"
   id="svg3"
   xmlns="http://www.w3.org/2000/svg"
   xmlns:svg="http://www.w3.org/2000/svg">
  <defs
     id="defs3" />
  <g
     fill="#222222"
     id="g3"
     transform="translate(-1.0002917,-0.99999997)">
    <path
       d="M 7,1 V 3 C 4.378906,3.003906 2.066406,4.699219 1.277344,7.199219 0.492188,9.695312 1.414062,12.414062 3.558594,13.917969 4.652344,14.699219 5.8125,13.039062 4.703125,12.28125 3.269531,11.28125 2.65625,9.464844 3.183594,7.800781 3.703125,6.132812 5.25,4.996094 7,5 V 7 H 7.75 C 7.882812,6.996094 8.011719,6.953125 8.125,6.882812 l 3.75,-2.25 C 12.082031,4.492188 12.207031,4.253906 12.203125,4 12.207031,3.746094 12.082031,3.507812 11.875,3.367188 l -3.75,-2.25 C 8.011719,1.046875 7.882812,1.003906 7.75,1 Z m 0,0"
       id="path1" />
    <path
       style="font-weight:bold;font-size:8.63484px;font-family:'Adwaita Sans';-inkscape-font-specification:'Adwaita Sans Bold';stroke-width:0.719571"
       d="m 7.3029307,15.34592 q -0.6240021,0 -1.1046524,-0.236109 -0.476434,-0.236109 -0.7631377,-0.645084 -0.2867037,-0.41319 -0.3415147,-0.92757 h 1.2100582 q 0.071676,0.366812 0.3330822,0.586056 0.2656225,0.219244 0.6788131,0.219244 0.4469204,0 0.7378403,-0.244542 0.2951361,-0.244541 0.438488,-0.687245 0.1433518,-0.442704 0.1433518,-1.02876 h -0.00843 q -0.1560006,0.240325 -0.3794608,0.400541 -0.2234602,0.160217 -0.5017314,0.244542 -0.2782712,0.08011 -0.6071372,0.08011 -0.602921,0 -1.079355,-0.269839 -0.476434,-0.274055 -0.750489,-0.746272 -0.2698388,-0.476434 -0.2698388,-1.079355 0,-0.640867 0.2951362,-1.1257339 Q 5.6333034,9.4010346 6.156116,9.1311958 6.6831448,8.8613571 7.3619579,8.8613571 q 0.5902723,0 1.0456252,0.2065953 0.4595691,0.2065952 0.7757864,0.6029209 0.3204335,0.3963257 0.4848665,0.9697327 0.1686492,0.569191 0.1686492,1.302816 0,0.775786 -0.164433,1.404004 -0.164433,0.624002 -0.4848665,1.075139 -0.3204335,0.44692 -0.7968675,0.687246 -0.4722179,0.236109 -1.0877875,0.236109 z m 0.054811,-3.216984 q 0.2361089,0 0.4342717,-0.08432 0.2023791,-0.08432 0.3499472,-0.236109 0.1517843,-0.151784 0.2361089,-0.354163 0.084325,-0.206595 0.084325,-0.446921 0,-0.320433 -0.1433519,-0.573407 Q 8.1756904,10.176821 7.9269328,10.029253 7.6781752,9.8816848 7.3703904,9.8816848 q -0.3120011,0 -0.5607587,0.1475682 -0.2487576,0.147568 -0.3963256,0.404758 -0.1433519,0.252974 -0.1433519,0.577624 0,0.320433 0.1433519,0.573407 0.1433518,0.252974 0.3878932,0.400542 0.2487576,0.143352 0.5565424,0.143352 z m 5.5527753,3.216984 q -0.788435,0 -1.361842,-0.39211 -0.569191,-0.396326 -0.876976,-1.121517 -0.303569,-0.725192 -0.303569,-1.724438 0,-1.003463 0.303569,-1.728655 0.307785,-0.7251916 0.876976,-1.1215173 0.569191,-0.3963256 1.361842,-0.3963256 0.788435,0 1.357626,0.3963256 0.573408,0.3921095 0.876976,1.1215173 0.307785,0.725192 0.307785,1.728655 0,0.999246 -0.307785,1.724438 -0.303568,0.725191 -0.876976,1.121517 -0.569191,0.39211 -1.357626,0.39211 z m 0,-1.037193 q 0.408974,0 0.704111,-0.265623 0.295136,-0.265622 0.455352,-0.758921 0.160217,-0.493299 0.160217,-1.176328 0,-0.687246 -0.160217,-1.180545 -0.160216,-0.493299 -0.455352,-0.758921 -0.295137,-0.2698392 -0.704111,-0.2698392 -0.408974,0 -0.708327,0.2698392 -0.295136,0.265622 -0.455353,0.758921 -0.156,0.493299 -0.156,1.180545 0,0.683029 0.156,1.176328 0.160217,0.493299 0.455353,0.758921 0.299353,0.265623 0.708327,0.265623 z"
       id="text3"
       transform="scale(1.0232966,0.97723378)"
       aria-label="90" />
  </g>
</svg>

