<?xml version="1.0" encoding="UTF-8"?>
<svg id="svg1" width="16" height="16" gpa:keywords="media-skip-forward end" gpa:state="1" gpa:version="1" version="1.1" xmlns="http://www.w3.org/2000/svg" xmlns:gpa="https://www.gtk.org/grappa">
 <style id="style1" type="text/css">.not-initial-state {
      display: none;
    }</style>
 <path id="path1" d="m2.2702 3.0293c-0.20281 0.13326-0.32806 0.3825-0.32791 0.65251v8.6402c3.343e-4 0.58223 0.54871 0.94181 0.98009 0.64267l7.7882-4.3201c0.41877-0.29125 0.41877-0.99409 0-1.2853l-7.7882-4.3201c-0.19998-0.1391-0.44913-0.14286-0.65218-0.0098443z" stroke="#000" stroke-width="1.8845"/>
 <path id="rect2" d="m14 2c-0.554 0-1 0.446-1 1v10c0 0.554 0.446 1 1 1s1-0.446 1-1v-10c0-0.554-0.446-1-1-1z" stroke-linecap="round" stroke-linejoin="bevel" stroke-width="2" style="paint-order:stroke markers fill"/>
</svg>
